<svg version="1.1" id="Layer_1" xmlns="http://www.w3.org/2000/svg" xmlns:xlink="http://www.w3.org/1999/xlink" x="0px" y="0px"
	 width="100%" viewBox="0 0 976 976" enable-background="new 0 0 976 976" xml:space="preserve">
<path fill="#000000" opacity="1.000000" stroke="none" 
	d="
M410.019867,245.899719 
	C417.154785,241.899033 424.633026,239.985443 432.253326,239.296234 
	C446.034271,238.049805 459.900635,237.577499 473.461792,241.178680 
	C494.121246,246.664841 502.940063,258.043762 504.157196,280.549561 
	C504.425659,285.513885 504.196503,290.505157 504.196503,296.303375 
	C510.806366,291.796356 517.783447,288.575958 524.992676,285.749939 
	C540.175964,279.798157 553.073914,283.414246 564.280090,294.503937 
	C577.267639,307.356445 585.579834,323.109650 590.589722,340.416046 
	C596.725464,361.611664 590.620056,375.635986 571.462463,387.330048 
	C570.065857,388.182526 568.677917,389.049286 566.778442,390.223083 
	C571.204895,393.497253 575.297668,396.493500 579.357605,399.533661 
	C590.957520,408.219818 594.432922,420.319611 591.707581,433.725647 
	C587.360352,455.110046 577.398071,473.833435 561.080994,488.635773 
	C552.339355,496.565826 541.955139,499.904785 530.100647,496.752686 
	C528.962097,496.449951 527.858459,496.153687 525.754089,496.940277 
	C533.568237,517.249084 540.580688,537.855835 546.034424,559.018616 
	C547.135376,548.873901 548.545288,538.947937 551.170410,529.157349 
	C559.196960,499.221161 578.443481,480.432159 607.550476,470.864532 
	C629.071167,463.790527 651.207764,460.533142 673.691833,458.965881 
	C677.889221,458.673309 679.238403,459.775665 678.503113,464.320740 
	C674.388245,489.753021 668.010193,514.382019 656.163696,537.511292 
	C643.921021,561.414368 623.579285,571.033569 598.051575,572.270813 
	C581.751465,573.060852 565.823425,570.947021 550.343933,565.675903 
	C549.582275,565.416504 548.756287,565.345703 548.029602,565.200867 
	C546.814331,566.724609 547.211121,568.279480 547.465149,569.676025 
	C550.955200,588.864563 550.173523,608.092712 548.472290,627.390137 
	C545.891602,656.664307 540.233887,685.325623 532.121826,713.530701 
	C530.049011,720.737854 527.496521,727.785156 524.315247,734.590332 
	C520.674988,742.377197 517.079285,744.732849 511.660187,742.881653 
	C505.180969,740.668518 501.478149,733.844604 503.228699,726.756042 
	C505.422333,717.873352 508.065521,709.099976 510.181427,700.200134 
	C517.899902,667.735168 523.015381,634.923523 522.642517,601.435608 
	C522.603699,597.949036 522.151306,594.464966 521.825623,590.985779 
	C521.769531,590.385925 521.384888,589.816772 521.059937,589.002808 
	C518.459106,589.990723 518.260681,592.392212 517.380310,594.178223 
	C509.238312,610.695190 498.375885,624.903748 483.795532,636.419373 
	C470.338348,647.047913 455.121735,649.397278 438.983093,647.035034 
	C411.911621,643.072510 387.221649,632.339661 363.597687,618.934998 
	C362.602234,618.370239 361.497620,617.849609 361.016113,616.145081 
	C365.137543,609.804749 370.663910,604.255493 376.069366,598.688293 
	C388.755920,585.622009 402.662506,574.022034 418.154449,564.317139 
	C445.096313,547.439270 472.576477,548.028137 500.514679,561.344543 
	C505.910522,563.916443 511.053894,567.017334 516.328064,569.847534 
	C516.583923,569.984863 516.977844,569.865173 517.316040,569.865173 
	C519.452881,565.391479 509.929199,529.323792 502.788025,514.895935 
	C502.146179,514.571594 501.891968,515.085327 501.740540,515.489014 
	C496.201630,530.252991 484.357971,536.863098 469.862610,539.576294 
	C454.508575,542.450317 439.020081,542.656860 423.740601,539.157593 
	C402.358582,534.260803 392.452393,521.899536 391.725708,499.924377 
	C391.562805,494.998535 391.701813,490.062653 391.701813,485.125946 
	C388.804565,484.831635 387.354279,486.389709 385.700745,487.375824 
	C378.043274,491.942566 369.821991,495.219666 361.117157,496.853973 
	C351.853821,498.593079 343.331970,495.535767 336.470367,489.598480 
	C317.305969,473.015625 305.997894,451.784302 303.151825,426.689850 
	C301.870087,415.388641 306.770844,405.490540 316.216064,398.451477 
	C320.210571,395.474579 324.330353,392.665710 328.964478,389.374725 
	C326.088684,387.451538 323.430145,385.638306 320.736816,383.878326 
	C305.372284,373.838348 300.416504,359.519073 304.919464,342.262329 
	C310.011230,322.748993 319.365417,305.370392 334.496552,291.631958 
	C345.188232,281.924377 357.398346,279.533691 371.081085,284.841980 
	C377.875183,287.477814 384.468933,290.475739 390.529388,294.463898 
	C392.241333,292.285492 391.640076,290.392975 391.613312,288.643768 
	C391.511108,281.962646 392.095673,275.384735 393.341095,268.795654 
	C395.272308,258.578674 400.867523,251.219604 410.019867,245.899719 
M518.727051,386.750305 
	C538.355774,388.464783 556.420715,384.988098 571.956238,371.767700 
	C578.092468,366.545898 581.360535,360.192535 580.345581,352.552979 
	C577.760193,333.092743 568.542297,316.677032 555.075623,302.682617 
	C549.539246,296.929260 542.459839,293.521973 534.271729,295.692688 
	C522.026917,298.938843 511.051514,304.614594 502.366974,314.231689 
	C493.533417,324.013733 487.929840,335.722260 482.016876,347.275146 
	C480.583954,350.074799 482.307770,351.535370 484.007599,353.236084 
	C491.487366,360.719666 496.619629,369.491852 498.392242,380.043945 
	C498.879089,382.942078 499.964935,384.837402 503.423950,385.034302 
	C508.226440,385.307678 512.997437,386.134216 518.727051,386.750305 
M416.523346,324.981232 
	C419.487671,329.403229 422.629700,333.719238 425.352966,338.285034 
	C427.130280,341.264893 429.085449,341.917694 432.322815,340.813110 
	C441.028900,337.842682 450.296173,336.962524 458.844086,339.713470 
	C466.338501,342.125366 470.314545,340.254333 473.384521,333.848724 
	C473.595062,333.409393 474.010956,333.073090 474.295868,332.664154 
	C485.235382,316.962311 493.547028,300.547699 491.840424,280.411896 
	C490.440155,263.890503 485.498322,257.168915 469.572571,252.790894 
	C465.185608,251.584930 460.751648,251.121735 456.257751,251.111877 
	C443.650208,251.084259 430.943512,250.051025 418.881744,255.247345 
	C412.053436,258.189026 407.188812,262.625488 405.578766,270.202911 
	C401.420044,289.774902 404.742828,307.843109 416.523346,324.981232 
M381.068115,475.566589 
	C385.204254,473.052490 389.047302,470.210327 392.424652,466.678894 
	C401.910431,456.760223 407.659760,444.562469 413.704163,432.516602 
	C414.998322,429.937500 413.698975,428.513184 412.046112,426.961426 
	C404.133759,419.533264 399.426331,410.275574 397.254211,399.788696 
	C396.548187,396.379883 395.039124,395.148010 391.768311,394.733948 
	C382.677643,393.583191 373.575226,393.107971 364.413330,392.967529 
	C348.215973,392.719391 334.706940,399.030060 322.573883,409.136200 
	C317.291870,413.535828 314.751190,419.361206 315.507233,425.927765 
	C317.942810,447.081238 327.366241,464.912201 343.119812,479.111847 
	C349.082153,484.486053 356.403412,486.280731 364.501587,482.985382 
	C369.893097,480.791412 375.448944,479.023773 381.068115,475.566589 
M378.178223,381.001160 
	C382.470276,381.512909 386.789764,381.862946 391.046234,382.584564 
	C394.862244,383.231506 396.812866,382.109741 397.726654,378.125977 
	C400.049530,367.998596 404.831573,359.162140 412.801392,352.278503 
	C414.967316,350.407806 414.912689,348.502167 413.708282,346.089233 
	C410.141113,338.942749 406.526428,331.835663 402.394470,324.985687 
	C394.832550,312.449615 384.244354,303.679626 370.878021,297.703796 
	C358.165588,292.020325 347.499573,294.242035 338.539276,304.487823 
	C327.869904,316.687897 320.241577,330.657379 316.471405,346.468719 
	C314.454620,354.926880 315.307648,363.093506 322.341797,369.401367 
	C326.441223,373.077515 330.896027,376.350098 335.783661,378.857147 
	C339.554108,380.791199 343.246094,383.639191 347.915009,382.576599 
	C357.607147,380.370728 367.412872,380.581177 378.178223,381.001160 
M521.127502,480.376007 
	C537.117371,488.993500 549.306824,484.008118 559.857971,471.581421 
	C568.569031,461.321838 574.730530,449.489349 578.444275,436.578094 
	C582.461426,422.611786 579.336304,414.281250 567.524414,405.895966 
	C564.012817,403.403076 560.109436,401.464996 556.406189,399.238342 
	C552.922913,397.143860 549.156860,396.739166 545.328857,397.707458 
	C539.282532,399.236938 533.153442,399.217438 526.988342,399.338287 
	C518.955872,399.495697 511.116730,397.808105 503.163574,397.285034 
	C500.913361,397.137054 498.822205,397.143585 498.322235,400.187103 
	C496.558258,410.924347 491.405792,419.878448 483.491577,427.222229 
	C481.106445,429.435425 480.870178,431.565643 482.297119,434.294403 
	C484.532745,438.569702 486.534271,442.969238 488.823730,447.214355 
	C496.306000,461.087708 505.623383,473.225250 521.127502,480.376007 
M409.737793,467.179108 
	C402.993439,481.136902 402.456787,495.718048 405.941406,510.496490 
	C408.240173,520.245728 417.761902,525.706970 427.568848,524.659485 
	C440.881042,523.237610 454.131256,520.872681 467.680511,524.375854 
	C478.239410,527.105835 487.359161,520.660522 490.103363,509.645172 
	C492.334351,500.690063 492.655212,491.543060 490.998779,482.418365 
	C488.013580,465.973969 478.150818,453.054260 468.963196,439.803528 
	C467.830200,438.169525 466.257751,438.268707 464.500580,438.830231 
	C453.398315,442.377960 442.254456,442.459808 431.151520,438.878204 
	C428.841522,438.133026 427.383362,438.710632 426.100403,440.662445 
	C420.531250,449.135101 414.300140,457.194763 409.737793,467.179108 
M484.521423,375.048706 
	C477.819397,359.935791 466.036987,351.371643 449.744019,350.528778 
	C433.843445,349.706207 421.273834,356.726166 413.380066,370.798065 
	C399.226654,396.028809 415.993042,429.432922 448.177307,429.451874 
	C477.504364,429.469116 494.709900,399.730316 484.521423,375.048706 
z"/>
</svg>