<?xml version="1.0" standalone="no"?>
<!DOCTYPE svg PUBLIC "-//W3C//DTD SVG 20010904//EN"
 "http://www.w3.org/TR/2001/REC-SVG-20010904/DTD/svg10.dtd">
<svg version="1.0" xmlns="http://www.w3.org/2000/svg"
 width="1334.000000pt" height="980.000000pt" viewBox="0 0 1334.000000 980.000000"
 preserveAspectRatio="xMidYMid meet">

<g transform="translate(0.000000,980.000000) scale(0.100000,-0.100000)"
fill="#000000" stroke="none">
<path d="M6715 9791 c-14 -13 -695 -427 -995 -604 -466 -276 -1268 -736 -2043
-1171 -62 -35 -386 -217 -722 -405 -335 -189 -686 -386 -780 -438 -93 -53
-204 -115 -245 -138 -41 -24 -297 -167 -568 -319 -271 -152 -512 -288 -535
-303 -156 -98 -555 -335 -617 -366 -89 -44 -163 -97 -186 -132 -12 -19 -18
-58 -22 -153 -9 -243 43 -393 194 -551 96 -101 207 -195 244 -206 14 -4 37 -8
51 -7 28 1 83 31 1199 658 812 455 870 488 874 483 1 -2 10 -157 19 -344 9
-187 28 -506 42 -710 80 -1184 118 -1969 135 -2745 11 -505 6 -857 -25 -1721
-9 -240 -15 -442 -13 -450 2 -8 -13 -15 -43 -20 -78 -12 -199 -88 -199 -125 0
-8 486 -12 2008 -13 1104 0 3057 -4 4340 -7 1514 -5 2332 -3 2332 3 0 13 -81
70 -144 101 -43 22 -68 27 -161 30 l-111 4 3 152 c2 83 5 684 7 1336 3 652 9
1327 15 1500 26 790 64 1475 136 2464 14 186 25 362 25 391 0 28 3 54 6 57 7
7 122 -58 524 -293 1198 -704 1215 -714 1328 -758 26 -10 66 -22 90 -26 l43
-7 85 84 c103 100 192 215 233 301 37 77 69 204 76 307 3 41 11 94 17 117 8
34 8 47 -3 63 -8 10 -90 57 -184 103 -180 89 -212 107 -815 457 -1418 822
-3289 1940 -4250 2538 -617 384 -1088 699 -1218 816 -20 18 -47 38 -59 45 -26
13 -75 15 -88 2z m-55 -281 c0 -22 -58 -73 -144 -127 -50 -31 -122 -76 -160
-101 -38 -24 -99 -58 -135 -75 -55 -26 -120 -66 -141 -87 -43 -44 -186 -120
-225 -120 -26 0 -27 1 -13 23 8 12 30 32 49 45 19 13 43 31 55 41 11 10 34 26
52 36 17 10 28 23 25 28 -3 6 -1 7 6 3 6 -4 23 1 39 12 15 10 52 31 82 45 30
14 82 46 115 71 33 25 63 45 67 45 4 1 45 27 91 59 45 31 98 65 116 76 56 32
121 46 121 26z m395 -90 c3 -6 -1 -7 -9 -4 -18 7 -21 14 -7 14 6 0 13 -4 16
-10z m29 -71 c16 -10 36 -15 44 -11 9 3 13 1 9 -5 -4 -5 17 -25 46 -43 29 -18
64 -41 79 -51 15 -11 30 -19 34 -19 3 0 17 -9 31 -20 14 -11 30 -17 36 -13 6
3 7 1 3 -5 -4 -7 -3 -12 2 -12 9 0 32 -18 82 -64 14 -12 59 -39 100 -60 41
-21 101 -56 133 -77 32 -22 61 -38 65 -35 4 2 8 -9 9 -25 2 -24 -2 -29 -21
-29 -23 0 -172 74 -204 101 -9 8 -34 25 -54 37 -20 13 -38 27 -40 31 -2 5 -66
46 -143 91 -182 107 -266 163 -289 196 -32 45 13 53 78 13z m-924 -74 c-7 -8
-17 -15 -23 -15 -6 0 -2 7 9 15 25 19 30 19 14 0z m1135 -15 c3 -6 -1 -7 -9
-4 -18 7 -21 14 -7 14 6 0 13 -4 16 -10z m295 -196 c0 -2 -9 0 -20 6 -11 6
-20 13 -20 16 0 2 9 0 20 -6 11 -6 20 -13 20 -16z m-680 -34 c8 -5 11 -10 5
-10 -5 0 -17 5 -25 10 -8 5 -10 10 -5 10 6 0 17 -5 25 -10z m810 -45 c0 -2 -6
-7 -12 -11 -7 -4 -10 -4 -6 1 4 4 0 14 -10 22 -15 13 -15 13 6 3 12 -6 22 -13
22 -15z m-1970 -39 c0 -8 -12 -24 -27 -35 -16 -12 -33 -25 -38 -29 -32 -26
-306 -202 -314 -202 -6 0 -11 -4 -11 -8 0 -8 -61 -47 -173 -111 -23 -13 -44
-27 -47 -30 -3 -3 -16 -12 -30 -20 -14 -8 -105 -63 -203 -123 -97 -59 -182
-108 -188 -108 -6 0 -7 -5 -3 -12 4 -7 3 -8 -5 -4 -6 4 -32 -6 -57 -23 -25
-17 -49 -31 -54 -31 -5 0 -15 -6 -22 -12 -7 -7 -29 -21 -48 -30 -19 -10 -42
-22 -50 -28 -8 -5 -53 -31 -100 -56 -199 -109 -516 -287 -525 -294 -5 -4 -46
-26 -90 -50 -44 -23 -154 -84 -245 -135 -536 -301 -657 -369 -670 -380 -8 -7
-40 -25 -70 -41 -30 -16 -57 -32 -60 -35 -3 -3 -63 -38 -135 -79 -71 -40 -219
-127 -328 -192 -109 -65 -200 -118 -202 -118 -3 0 -29 -16 -59 -35 -30 -19
-57 -35 -60 -35 -3 0 -40 -21 -83 -46 -43 -25 -85 -49 -93 -54 -8 -5 -60 -35
-115 -68 -255 -150 -396 -233 -470 -274 -143 -81 -159 -90 -211 -118 -28 -16
-75 -42 -105 -58 -236 -133 -556 -290 -606 -298 -41 -6 -43 -5 -43 17 0 25 7
33 72 83 21 15 36 31 33 35 -2 4 2 8 9 8 7 0 109 55 227 123 118 67 430 246
694 398 519 297 518 296 509 304 -3 3 0 9 7 14 8 4 10 3 5 -4 -12 -20 6 -14
64 21 30 18 82 48 115 66 118 65 145 83 138 93 -3 6 -1 8 5 4 13 -8 158 69
155 83 -2 6 4 8 12 4 9 -3 23 1 33 8 19 16 24 18 147 84 50 26 95 51 100 55
11 8 265 148 385 212 41 22 95 53 120 68 25 15 112 65 195 110 175 96 187 104
177 115 -4 5 -1 5 5 1 7 -4 41 8 75 27 97 52 237 130 303 171 33 20 64 36 68
36 15 0 57 37 49 44 -3 4 1 4 9 1 10 -4 72 26 160 76 79 45 178 101 219 124
41 23 98 55 125 71 28 15 68 38 90 50 115 62 181 98 185 103 3 3 28 18 55 33
28 15 49 31 48 35 -1 4 9 9 21 9 12 1 60 25 105 53 45 28 85 51 88 51 3 0 42
22 87 49 45 26 133 78 196 113 136 77 205 117 320 186 85 52 130 64 130 38z
m1295 -4 c-3 -3 -11 0 -18 7 -9 10 -8 11 6 5 10 -3 15 -9 12 -12z m69 -37 c11
-8 16 -15 10 -15 -5 0 -18 7 -28 15 -11 8 -16 15 -10 15 5 0 18 -7 28 -15z
m781 -33 c-3 -3 -11 0 -18 7 -9 10 -8 11 6 5 10 -3 15 -9 12 -12z m-720 -2 c3
-6 -1 -7 -9 -4 -18 7 -21 14 -7 14 6 0 13 -4 16 -10z m760 -20 c3 -6 -1 -7 -9
-4 -18 7 -21 14 -7 14 6 0 13 -4 16 -10z m-25 -33 c25 -13 88 -47 140 -77 52
-29 120 -66 150 -83 30 -16 57 -32 60 -36 3 -3 21 -15 40 -25 19 -11 59 -32
87 -48 30 -17 58 -26 65 -22 7 4 10 4 6 -1 -8 -9 49 -55 66 -55 6 1 0 7 -14
15 -29 16 -19 20 11 4 11 -5 17 -14 14 -19 -3 -6 16 -20 42 -32 26 -13 50 -26
51 -30 2 -5 10 -8 18 -8 8 0 14 -5 14 -11 0 -6 7 -8 16 -5 8 3 13 2 10 -3 -3
-4 16 -18 42 -31 26 -13 50 -28 54 -34 4 -6 8 -8 8 -3 0 4 9 -2 21 -14 11 -11
27 -18 35 -15 8 3 14 1 14 -5 0 -5 24 -21 53 -35 28 -14 70 -39 92 -55 35 -26
87 -56 205 -120 19 -11 89 -53 155 -94 104 -64 204 -123 379 -224 23 -12 48
-29 56 -36 8 -7 20 -14 25 -16 11 -4 209 -121 455 -269 159 -95 278 -165 535
-318 94 -55 276 -163 405 -239 129 -77 318 -188 420 -248 102 -59 239 -140
305 -179 66 -39 133 -77 149 -84 16 -7 36 -20 45 -30 19 -21 50 -36 70 -33 7
1 11 -2 8 -6 -3 -5 4 -15 16 -23 21 -12 21 -12 7 5 -14 17 -14 17 7 5 12 -8
19 -18 17 -22 -3 -4 1 -8 9 -8 8 0 20 -7 27 -15 7 -8 35 -28 64 -43 107 -60
232 -132 246 -142 8 -5 79 -48 158 -95 149 -89 193 -126 189 -160 -6 -57 -163
9 -542 230 -49 29 -175 101 -280 160 -104 60 -230 133 -278 162 -48 29 -90 53
-93 53 -3 0 -24 13 -47 28 -23 16 -62 40 -87 53 -25 13 -47 26 -50 29 -3 3
-21 15 -40 27 -87 51 -607 364 -620 374 -9 6 -43 27 -77 47 -209 125 -371 224
-388 237 -10 8 -25 15 -31 15 -7 0 -19 6 -26 13 -7 7 -53 37 -103 66 -49 30
-102 62 -117 73 -15 10 -31 18 -37 18 -5 0 -11 5 -13 11 -2 6 -15 12 -30 12
-14 1 -24 5 -22 9 5 7 -68 57 -146 100 -63 35 -313 185 -325 196 -6 5 -39 25
-75 46 -36 20 -74 42 -84 49 -11 7 -49 30 -85 53 -88 54 -357 217 -401 242
-19 11 -107 64 -195 117 -88 54 -200 122 -250 152 -49 31 -105 64 -123 74 -18
10 -75 46 -128 79 -52 33 -99 60 -104 60 -4 0 -10 4 -12 8 -2 7 -64 47 -146
97 -63 37 -143 98 -152 115 -25 46 -6 51 60 17z m-635 -7 c3 -6 -1 -7 -9 -4
-18 7 -21 14 -7 14 6 0 13 -4 16 -10z m-1945 -25 c-7 -8 -17 -15 -23 -15 -6 0
-2 7 9 15 25 19 30 19 14 0z m2780 -40 c0 -2 -6 -5 -13 -8 -8 -3 -14 1 -14 8
0 7 6 11 14 8 7 -3 13 -6 13 -8z m-670 -37 c0 -6 -6 -5 -15 2 -8 7 -15 14 -15
16 0 2 7 1 15 -2 8 -4 15 -11 15 -16z m240 -144 c0 -2 -9 0 -20 6 -11 6 -20
13 -20 16 0 2 9 0 20 -6 11 -6 20 -13 20 -16z m150 -91 c0 -7 -39 17 -46 28
-3 6 5 3 20 -6 14 -10 26 -19 26 -22z m-2420 -7 c0 -2 -7 -7 -16 -10 -8 -3
-12 -2 -9 4 6 10 25 14 25 6z m1270 -26 c14 -11 28 -20 33 -20 4 0 24 -11 45
-24 39 -24 205 -121 282 -164 25 -14 68 -39 95 -56 28 -17 61 -37 75 -44 14
-6 32 -16 40 -22 35 -23 155 -93 169 -99 9 -3 51 -26 95 -50 76 -43 78 -44 55
-57 -13 -7 -20 -13 -16 -14 5 0 17 5 28 11 16 8 26 7 44 -5 13 -8 54 -32 92
-52 37 -20 75 -42 83 -48 8 -7 28 -18 43 -24 17 -7 25 -17 21 -24 -4 -7 -3 -8
5 -4 11 7 348 -177 363 -198 4 -6 8 -8 8 -4 0 4 34 -13 76 -37 42 -25 78 -45
81 -45 3 0 28 -14 55 -31 28 -16 84 -49 126 -71 43 -23 89 -49 104 -60 14 -10
29 -18 32 -18 3 0 50 -25 104 -56 53 -31 131 -75 172 -97 41 -22 82 -45 90
-51 8 -7 31 -20 50 -29 56 -27 177 -95 276 -153 51 -30 94 -54 98 -54 17 0 95
-57 89 -65 -5 -4 -2 -5 4 -1 7 4 72 -26 150 -71 76 -42 153 -84 171 -92 17 -8
32 -19 32 -23 0 -4 4 -8 10 -8 5 0 56 -25 112 -57 57 -31 126 -69 153 -84 28
-15 130 -72 228 -128 99 -56 181 -101 183 -101 3 0 97 -52 172 -96 1 -1 -4
-69 -12 -152 -17 -164 -37 -419 -61 -777 -8 -126 -17 -255 -20 -285 -5 -57
-36 -609 -55 -970 -37 -729 -52 -1631 -48 -2813 l3 -978 -2540 7 c-1397 3
-2541 8 -2543 9 -5 4 11 124 17 121 3 -2 7 46 8 108 1 61 7 233 12 381 28 725
57 3348 38 3455 -13 79 -34 91 -189 106 -617 61 -1236 56 -1883 -16 -109 -13
-154 -32 -173 -75 -9 -19 -12 -331 -12 -1228 0 -661 -5 -1411 -10 -1667 -5
-256 -10 -628 -10 -827 l0 -363 -246 3 -247 2 7 85 c18 234 36 568 47 870 13
377 7 1543 -10 1910 -22 472 -33 670 -62 1165 -41 715 -85 1360 -114 1684 -14
152 -25 290 -25 308 0 30 6 34 143 111 78 44 178 99 222 122 44 24 97 54 117
67 21 12 40 23 43 23 3 0 22 10 43 23 20 13 66 40 102 59 113 62 163 90 230
128 36 20 101 58 145 82 44 25 152 86 240 136 176 100 203 113 190 92 -5 -9
-4 -11 4 -6 6 4 9 11 7 15 -8 12 101 74 116 65 7 -4 10 -4 6 1 -11 12 119 85
140 79 11 -4 13 -3 5 3 -15 11 103 77 119 67 6 -4 8 -3 5 3 -9 15 92 76 126
76 15 0 23 3 17 7 -11 7 11 20 140 93 19 10 107 60 195 109 88 49 167 94 175
98 8 5 49 29 90 53 41 25 156 91 255 147 242 138 221 126 459 263 116 66 238
137 271 157 153 93 205 121 215 115 6 -4 9 -1 8 5 -2 6 15 21 37 33 22 12 42
25 45 28 8 10 44 28 55 28 6 1 21 -8 35 -19z m-2315 -228 c-3 -3 -11 0 -18 7
-9 10 -8 11 6 5 10 -3 15 -9 12 -12z m4000 -52 c3 -6 -1 -7 -9 -4 -18 7 -21
14 -7 14 6 0 13 -4 16 -10z m490 -290 c3 -6 -1 -7 -9 -4 -18 7 -21 14 -7 14 6
0 13 -4 16 -10z m106 -67 c13 -17 13 -17 -6 -3 -11 8 -22 16 -24 17 -2 2 0 3
6 3 6 0 17 -8 24 -17z m-5447 -48 c-10 -8 -23 -15 -28 -15 -6 0 -1 7 10 15 10
8 23 15 28 15 6 0 1 -7 -10 -15z m623 -11 c-3 -3 -12 -4 -19 -1 -8 3 -5 6 6 6
11 1 17 -2 13 -5z m-28 -17 c-2 -1 -13 -9 -24 -17 -19 -14 -19 -14 -6 3 7 9
18 17 24 17 6 0 8 -1 6 -3z m5086 -57 c3 -6 -1 -7 -9 -4 -18 7 -21 14 -7 14 6
0 13 -4 16 -10z m-5325 -74 c0 -2 -8 -10 -17 -17 -16 -13 -17 -12 -4 4 13 16
21 21 21 13z m5465 -14 c-3 -3 -11 0 -18 7 -9 10 -8 11 6 5 10 -3 15 -9 12
-12z m330 -200 c-3 -3 -11 0 -18 7 -9 10 -8 11 6 5 10 -3 15 -9 12 -12z
m-6870 -32 c-3 -5 -12 -10 -18 -10 -7 0 -6 4 3 10 19 12 23 12 15 0z m7120
-110 c3 -6 -1 -7 -9 -4 -18 7 -21 14 -7 14 6 0 13 -4 16 -10z m-6710 -19 c3
-5 2 -12 -3 -15 -5 -3 -9 1 -9 9 0 17 3 19 12 6z m-778 -87 c-3 -3 -12 -4 -19
-1 -8 3 -5 6 6 6 11 1 17 -2 13 -5z m7808 -84 c3 -6 -1 -7 -9 -4 -18 7 -21 14
-7 14 6 0 13 -4 16 -10z m-7485 -104 c0 -2 -7 -7 -16 -10 -8 -3 -12 -2 -9 4 6
10 25 14 25 6z m-755 -46 c-3 -5 -12 -10 -18 -10 -7 0 -6 4 3 10 19 12 23 12
15 0z m570 -60 c-3 -5 -12 -10 -18 -10 -7 0 -6 4 3 10 19 12 23 12 15 0z m-55
-25 c0 -2 -10 -9 -22 -15 -22 -11 -22 -10 -4 4 21 17 26 19 26 11z m-700 -19
c0 -2 -7 -7 -16 -10 -8 -3 -12 -2 -9 4 6 10 25 14 25 6z m-75 -64 c-3 -3 -11
0 -18 7 -9 10 -8 11 6 5 10 -3 15 -9 12 -12z m-220 -102 c-3 -5 -12 -10 -18
-10 -7 0 -6 4 3 10 19 12 23 12 15 0z m440 -130 c3 -6 -1 -7 -9 -4 -18 7 -21
14 -7 14 6 0 13 -4 16 -10z m9285 -40 c0 -5 -2 -10 -4 -10 -3 0 -8 5 -11 10
-3 6 -1 10 4 10 6 0 11 -4 11 -10z m-10200 -124 c0 -2 -7 -7 -16 -10 -8 -3
-12 -2 -9 4 6 10 25 14 25 6z m-45 -26 c-3 -5 -11 -10 -16 -10 -6 0 -7 5 -4
10 3 6 11 10 16 10 6 0 7 -4 4 -10z m-40 -20 c-3 -5 -12 -10 -18 -10 -7 0 -6
4 3 10 19 12 23 12 15 0z m-105 -60 c-8 -5 -19 -10 -25 -10 -5 0 -3 5 5 10 8
5 20 10 25 10 6 0 3 -5 -5 -10z m11500 -16 c0 -2 -9 0 -20 6 -11 6 -20 13 -20
16 0 2 9 0 20 -6 11 -6 20 -13 20 -16z m145 -82 c-3 -3 -11 0 -18 7 -9 10 -8
11 6 5 10 -3 15 -9 12 -12z m-660 -32 c3 -6 -1 -7 -9 -4 -18 7 -21 14 -7 14 6
0 13 -4 16 -10z m1095 -180 c8 -5 11 -10 5 -10 -5 0 -17 5 -25 10 -8 5 -10 10
-5 10 6 0 17 -5 25 -10z m-12160 -105 c0 -2 -10 -9 -22 -15 -22 -11 -22 -10
-4 4 21 17 26 19 26 11z m11605 -35 c3 -6 -1 -7 -9 -4 -18 7 -21 14 -7 14 6 0
13 -4 16 -10z m-12238 -92 c-2 -13 -4 -3 -4 22 0 25 2 35 4 23 2 -13 2 -33 0
-45z m12378 12 c3 -6 -1 -7 -9 -4 -18 7 -21 14 -7 14 6 0 13 -4 16 -10z
m-12368 -102 c-3 -8 -6 -5 -6 6 -1 11 2 17 5 13 3 -3 4 -12 1 -19z m10 -40
c-3 -8 -6 -5 -6 6 -1 11 2 17 5 13 3 -3 4 -12 1 -19z m143 -12 c0 -2 -8 -10
-17 -17 -16 -13 -17 -12 -4 4 13 16 21 21 21 13z m12660 -126 c0 -5 -2 -10 -4
-10 -3 0 -8 5 -11 10 -3 6 -1 10 4 10 6 0 11 -4 11 -10z m-8422 -1527 c-15 -2
-42 -2 -60 0 -18 2 -6 4 27 4 33 0 48 -2 33 -4z m-591 -49 c-3 -3 -12 -4 -19
-1 -8 3 -5 6 6 6 11 1 17 -2 13 -5z m718 -24 c123 -18 125 -18 125 -50 0 -20
-6 -31 -21 -35 -22 -7 -112 0 -194 16 -77 14 -186 18 -230 9 -46 -10 -148 -23
-185 -24 -14 0 -27 -3 -30 -7 -9 -12 -75 -19 -89 -10 -21 13 3 41 35 41 13 0
58 12 101 26 43 14 101 29 128 34 73 11 279 11 360 0z m-868 -132 c-3 -7 -5
-2 -5 12 0 14 2 19 5 13 2 -7 2 -19 0 -25z m131 -74 c20 -14 22 -22 19 -92 -2
-72 -4 -77 -25 -80 -34 -5 -54 16 -49 52 2 17 0 46 -5 64 -8 27 -6 38 8 53 21
23 24 23 52 3z m31 -244 c22 -75 30 -203 37 -651 6 -416 5 -446 -11 -463 -26
-26 -83 -18 -108 16 -19 26 -20 41 -19 225 2 362 12 878 17 900 5 24 31 34 56
22 8 -4 21 -26 28 -49z m-152 -82 c-3 -7 -5 -2 -5 12 0 14 2 19 5 13 2 -7 2
-19 0 -25z m248 -1226 c-3 -3 -11 0 -18 7 -9 10 -8 11 6 5 10 -3 15 -9 12 -12z
m-248 -249 c-3 -10 -5 -4 -5 12 0 17 2 24 5 18 2 -7 2 -21 0 -30z m310 -85
c-3 -7 -5 -2 -5 12 0 14 2 19 5 13 2 -7 2 -19 0 -25z m-27 -78 c0 -5 -5 -10
-11 -10 -5 0 -7 5 -4 10 3 6 8 10 11 10 2 0 4 -4 4 -10z m-293 -162 c-3 -8 -6
-5 -6 6 -1 11 2 17 5 13 3 -3 4 -12 1 -19z m0 -75 c-3 -10 -5 -4 -5 12 0 17 2
24 5 18 2 -7 2 -21 0 -30z m142 13 c13 -16 4 -76 -12 -76 -6 0 -2 -6 9 -14 18
-14 19 -29 19 -273 l0 -258 -27 -3 c-22 -3 -30 2 -38 23 -12 33 -13 129 0 215
5 36 10 137 11 225 1 88 4 163 6 168 6 11 19 8 32 -7z m-162 -578 c-3 -8 -6
-5 -6 6 -1 11 2 17 5 13 3 -3 4 -12 1 -19z m-20 -320 c-3 -7 -5 -2 -5 12 0 14
2 19 5 13 2 -7 2 -19 0 -25z"/>
<path d="M6747 8379 c7 -7 15 -10 18 -7 3 3 -2 9 -12 12 -14 6 -15 5 -6 -5z"/>
<path d="M6120 8140 c-9 -6 -10 -10 -3 -10 6 0 15 5 18 10 8 12 4 12 -15 0z"/>
<path d="M6624 8130 c-11 -4 -68 -39 -125 -78 -438 -293 -855 -549 -1239 -762
-102 -56 -191 -108 -198 -115 -11 -10 -10 -19 6 -51 21 -41 30 -79 61 -264 46
-268 91 -628 172 -1390 20 -184 24 -186 276 -171 508 32 1227 40 1703 21 693
-28 686 -28 709 29 6 14 22 136 36 271 89 860 175 1437 228 1538 l22 43 -25
20 c-14 10 -108 62 -210 113 -102 52 -229 119 -284 150 -54 31 -100 56 -102
56 -7 0 -469 278 -601 361 -416 264 -384 247 -429 229z m261 -370 c18 -20 17
-20 -8 -20 -20 0 -27 5 -27 20 0 11 4 20 8 20 5 0 17 -9 27 -20z m-428 -35
c-4 -8 -17 -15 -29 -15 l-23 0 25 20 c27 20 36 19 27 -5z m603 -112 c58 -47
133 -103 167 -126 34 -22 61 -42 59 -44 -1 -2 -99 17 -217 41 l-214 44 -3 91
-3 92 53 -7 c47 -6 65 -17 158 -91z m-600 -23 c0 -64 -4 -92 -12 -94 -43 -12
-411 -86 -414 -83 -3 2 23 23 56 46 33 24 106 79 161 123 99 79 106 82 202 97
4 0 7 -40 7 -89z m660 -145 l235 -46 175 -88 c96 -49 212 -103 258 -122 45
-18 82 -39 82 -46 0 -16 0 -16 -36 -3 -16 6 -153 37 -304 69 -326 70 -650 141
-667 147 -9 2 -13 26 -13 74 0 63 2 71 18 66 9 -3 123 -26 252 -51z m-662 -52
l-3 -66 -120 -27 c-66 -15 -264 -60 -440 -99 -363 -81 -435 -100 -435 -112 0
-15 21 -11 278 47 468 105 693 154 707 154 12 0 15 -16 15 -75 0 -59 -3 -75
-14 -75 -17 0 -698 -158 -861 -200 -60 -15 -111 -27 -113 -25 -2 2 -7 34 -12
71 -6 38 -12 83 -15 100 -5 30 -3 32 47 54 122 52 314 143 381 181 65 37 95
46 307 89 129 27 245 49 258 49 22 1 23 -2 20 -66z m441 -73 c20 -5 88 -21
151 -34 63 -14 258 -57 433 -96 175 -38 333 -70 351 -70 l32 0 -11 -82 c-8
-62 -14 -83 -25 -82 -15 1 -64 12 -445 99 -110 25 -275 62 -367 83 l-168 37 0
78 c0 42 3 77 6 77 4 0 23 -4 43 -10z m426 -279 c237 -54 450 -102 474 -106
l43 -7 -6 -42 c-3 -22 -11 -103 -18 -179 l-12 -138 -31 5 c-18 4 -153 24 -301
46 -394 57 -607 90 -609 93 -1 1 -5 46 -9 100 -5 72 -3 97 6 97 6 0 102 -16
212 -36 744 -131 723 -128 730 -116 9 15 -9 19 -263 63 -130 22 -310 53 -401
69 -91 17 -193 35 -227 41 l-63 11 0 105 c0 104 0 105 23 99 12 -4 216 -51
452 -105z m-865 -30 l0 -99 -87 -16 c-49 -9 -246 -46 -440 -81 -396 -72 -415
-76 -420 -92 -5 -14 -9 -14 302 42 132 24 321 57 420 74 99 18 190 34 203 36
22 5 22 4 22 -95 0 -55 -2 -100 -5 -100 -20 0 -904 -140 -918 -146 -18 -6 -24
-24 -8 -24 5 0 123 18 262 39 140 22 335 51 434 66 99 14 192 28 208 31 l27 6
0 -96 0 -95 -32 -6 c-18 -3 -181 -25 -363 -50 -181 -25 -374 -52 -429 -61 -54
-8 -101 -13 -103 -10 -2 2 -11 73 -19 158 -8 84 -21 207 -28 273 -8 66 -13
121 -12 122 0 1 51 13 111 26 476 109 738 169 785 181 95 24 90 29 90 -83z
m790 -387 c206 -30 414 -60 463 -67 99 -13 93 -2 81 -128 l-7 -66 -46 9 c-25
4 -219 30 -431 58 -212 27 -400 52 -417 55 l-33 6 0 94 c0 52 3 95 8 95 4 0
176 -25 382 -56z m1 -214 c502 -68 512 -69 524 -67 5 1 9 -13 8 -33 -1 -19 -5
-101 -8 -183 l-7 -148 -32 6 c-17 3 -130 14 -251 25 -121 11 -281 27 -355 34
-74 8 -165 18 -202 21 l-68 7 0 89 0 89 28 -5 c15 -3 160 -19 322 -35 162 -17
331 -35 375 -40 100 -13 175 -13 175 -1 0 12 -19 14 -330 46 -135 14 -318 33
-407 42 l-163 17 0 93 c0 51 4 93 8 93 4 0 177 -23 383 -50z m-796 -76 l0 -89
-60 -7 c-33 -4 -222 -25 -420 -47 -398 -45 -425 -49 -425 -62 0 -13 35 -11
225 11 196 22 651 70 671 70 11 0 14 -20 14 -88 l0 -88 -62 -2 c-35 -1 -142
-11 -238 -21 -96 -11 -267 -30 -379 -41 -112 -12 -210 -24 -216 -26 -16 -7
-23 31 -24 141 -1 50 -4 119 -7 155 l-6 66 98 11 c121 14 678 89 754 101 30 5
60 8 65 7 6 -1 10 -39 10 -91z m744 -324 c168 -17 366 -36 439 -42 l132 -12 0
-61 c0 -33 -4 -66 -8 -72 -6 -10 -71 -9 -313 7 -167 11 -344 22 -394 25 -49 3
-114 8 -142 11 l-53 5 0 91 c0 79 2 89 16 84 9 -3 154 -20 323 -36z m-739 -90
l0 -90 -57 0 c-59 0 -375 -21 -673 -44 -91 -8 -167 -12 -170 -9 -2 2 -6 35 -8
74 -3 53 -1 69 9 69 8 0 124 11 259 25 433 46 594 62 618 64 21 1 22 -2 22
-89z m837 -110 c171 -11 346 -20 388 -20 l77 0 -7 -77 c-4 -43 -9 -80 -11 -82
-2 -2 -57 1 -123 8 -65 6 -264 11 -440 11 l-321 0 0 95 0 96 63 -6 c34 -3 202
-14 374 -25z m-837 -79 c0 -44 3 -86 6 -95 6 -14 -23 -16 -277 -16 -264 -1
-494 -11 -573 -26 -38 -7 -39 -4 -51 97 l-7 56 109 6 c185 10 727 47 748 51
11 2 26 4 33 5 9 1 12 -21 12 -78z"/>
<path d="M10681 4664 c0 -11 3 -14 6 -6 3 7 2 16 -1 19 -3 4 -6 -2 -5 -13z"/>
<path d="M6950 4330 c-473 -20 -816 -42 -848 -56 -66 -27 -63 12 -69 -1003 -3
-504 -1 -1061 4 -1238 10 -316 10 -323 34 -357 13 -19 35 -40 48 -46 48 -22
507 -32 1403 -31 1157 2 2347 23 2399 43 45 16 58 71 74 316 8 121 20 343 26
494 14 354 27 1703 16 1746 -9 35 -39 69 -75 83 -13 5 -292 18 -620 30 -657
23 -2029 34 -2392 19z m1031 -446 l44 -6 3 -458 2 -457 -232 -7 c-526 -15
-1053 -38 -1210 -52 l-68 -6 0 476 0 476 25 0 c14 0 103 5 198 11 351 22 1140
36 1238 23z m1115 -24 c186 -6 368 -13 403 -16 l63 -6 -6 -224 c-3 -123 -9
-326 -12 -450 l-6 -226 -62 6 c-33 3 -359 9 -723 12 l-662 7 0 276 c-1 273 -7
485 -17 590 l-5 54 344 -6 c189 -4 496 -11 683 -17z m436 -1104 c-2 -72 -7
-239 -13 -371 -5 -132 -9 -268 -9 -302 l0 -61 -707 -1 -708 -1 1 433 c1 237 2
436 3 440 0 5 324 6 719 2 l717 -7 -3 -132z m-1500 -298 c3 -238 5 -434 4
-435 -1 -1 -135 -3 -297 -4 -162 0 -492 -5 -734 -11 -242 -5 -455 -6 -474 -3
l-34 6 6 102 c4 56 10 244 13 418 l7 315 496 18 c273 10 503 19 511 21 8 1
124 3 256 4 l241 1 5 -432z"/>
</g>
</svg>
