<?xml version="1.0" standalone="no"?>
<!DOCTYPE svg PUBLIC "-//W3C//DTD SVG 20010904//EN"
 "http://www.w3.org/TR/2001/REC-SVG-20010904/DTD/svg10.dtd">
<svg version="1.0" xmlns="http://www.w3.org/2000/svg"
 width="1300.000000pt" height="1300.000000pt" viewBox="0 0 1300.000000 1300.000000"
 preserveAspectRatio="xMidYMid meet">

<g transform="translate(0.000000,1300.000000) scale(0.100000,-0.100000)"
fill="#000000" stroke="none">
<path d="M4988 8523 c7 -3 16 -2 19 1 4 3 -2 6 -13 5 -11 0 -14 -3 -6 -6z"/>
<path d="M8328 8513 c7 -3 16 -2 19 1 4 3 -2 6 -13 5 -11 0 -14 -3 -6 -6z"/>
<path d="M8378 8513 c7 -3 16 -2 19 1 4 3 -2 6 -13 5 -11 0 -14 -3 -6 -6z"/>
<path d="M4011 8464 c0 -11 3 -14 6 -6 3 7 2 16 -1 19 -3 4 -6 -2 -5 -13z"/>
<path d="M3990 8422 c0 -10 -4 -22 -9 -27 -11 -13 -31 -70 -43 -125 -17 -72
-21 -280 -8 -321 9 -27 9 -42 1 -55 -9 -16 -10 -16 -11 -3 0 9 -8 20 -17 23
-10 4 -34 15 -53 26 -19 10 -47 19 -62 20 -16 0 -28 5 -28 10 0 6 -6 10 -14
10 -7 0 -25 11 -39 25 l-25 26 -6 -28 c-3 -15 -7 -61 -8 -101 -1 -40 -5 -75
-9 -78 -4 -2 -41 4 -81 15 -59 16 -79 26 -105 56 -28 33 -53 103 -53 150 0 8
-4 15 -10 15 -5 0 -10 -4 -10 -10 0 -5 -7 -10 -16 -10 -8 0 -22 -7 -30 -15 -8
-8 -44 -24 -81 -35 -79 -24 -231 -27 -313 -5 -61 17 -93 19 -73 7 7 -4 20 -37
29 -72 23 -92 15 -274 -16 -350 -41 -101 -63 -139 -106 -187 -24 -27 -43 -51
-44 -55 0 -5 -31 -8 -70 -8 -63 0 -70 -2 -70 -20 0 -10 7 -23 16 -28 24 -13
40 -153 23 -206 -16 -49 -89 -165 -105 -165 -13 -1 -24 -24 -24 -51 0 -9 -8
-24 -17 -31 -15 -12 -16 -12 -10 3 4 11 2 17 -5 15 -7 -1 -12 13 -12 38 -1 40
-1 40 -41 40 -40 0 -40 0 -40 40 0 38 -3 42 -34 37 -5 -1 -11 -9 -14 -16 -4
-11 -1 -13 10 -9 12 5 15 2 10 -10 -4 -11 -2 -14 9 -10 7 3 14 0 14 -6 0 -6
-5 -11 -11 -11 -7 0 0 -11 13 -25 17 -17 31 -23 44 -18 13 5 16 3 11 -10 -4
-11 -2 -14 9 -10 7 3 14 0 14 -6 0 -6 -4 -11 -10 -11 -15 0 7 -23 214 -232
l189 -190 494 494 c271 272 495 493 496 491 2 -1 -220 -225 -492 -497 -485
-485 -495 -495 -476 -513 28 -25 49 -53 40 -53 -4 0 -20 14 -37 32 l-29 32
-112 -113 -112 -113 46 4 46 3 64 -87 c35 -48 67 -87 70 -87 14 -2 163 -150
157 -156 -3 -3 -31 -9 -61 -12 -57 -6 -197 21 -197 37 0 5 -9 11 -20 15 -31
10 -100 71 -151 135 l-46 58 -24 -21 c-22 -21 -22 -21 -6 -1 21 25 21 38 2 54
-12 10 -10 15 15 37 17 14 30 31 30 39 0 18 15 18 43 -1 22 -14 27 -10 136 99
l113 114 -187 186 -188 186 -33 -35 c-18 -19 -36 -44 -39 -55 -3 -11 -15 -20
-26 -20 -10 0 -19 -6 -19 -13 0 -18 -37 -40 -43 -24 -7 19 -41 -6 -45 -32 -3
-19 -8 -22 -30 -17 -19 5 -23 4 -12 -3 16 -11 -137 -9 -200 2 -28 5 -30 5 -10
-2 17 -6 20 -9 7 -10 -9 -1 -26 5 -37 12 -17 10 -22 9 -29 -2 -7 -11 -9 -11
-14 0 -5 12 -7 12 -15 0 -6 -8 -11 -9 -13 -2 -2 5 -32 11 -66 12 -35 1 -63 5
-63 8 0 3 11 28 25 55 19 38 25 65 25 116 l0 67 79 5 c91 5 134 27 176 89 25
39 68 158 60 168 -3 3 -40 40 -82 82 l-76 77 -21 -20 c-58 -55 -253 -160 -344
-184 -75 -20 -177 -18 -213 3 -26 15 -31 16 -39 3 -5 -8 -7 -18 -4 -22 8 -12
-16 -81 -38 -107 -15 -19 -21 -22 -27 -12 -6 8 -11 9 -15 3 -3 -6 0 -12 6 -15
19 -7 -20 -42 -57 -52 -44 -12 -195 -8 -211 6 -7 6 -28 15 -46 19 -50 12 -101
34 -116 48 -18 16 -29 15 -36 -4 -16 -42 7 -174 30 -174 8 0 14 -7 14 -15 0
-26 42 -96 64 -105 32 -14 66 -46 66 -64 0 -20 -9 -20 -32 1 -17 15 -18 15
-18 -10 0 -14 6 -28 13 -31 9 -5 9 -7 0 -12 -7 -3 -13 -23 -13 -45 0 -39 0
-39 -40 -39 l-40 0 0 -79 0 -80 -82 -3 -83 -3 4 43 3 42 -42 0 -42 0 3 -42 4
-43 -43 4 -44 3 4 -121 4 -121 -43 0 -44 0 3 -42 c3 -38 6 -43 26 -40 25 2 21
-4 -20 -36 -14 -12 -16 -10 -11 9 6 20 3 21 -22 15 -16 -4 -35 -15 -42 -24
-11 -15 -12 -15 -13 5 0 12 6 24 13 26 6 3 -10 6 -38 6 -53 1 -86 -11 -66 -24
7 -3 9 -15 6 -25 -3 -10 -1 -21 4 -24 6 -4 8 -13 4 -21 -5 -16 8 -20 21 -8 11
11 87 32 81 23 -3 -5 -24 -15 -48 -23 -23 -8 -50 -18 -59 -22 -16 -6 -17 -3
-12 24 4 18 2 31 -3 31 -15 0 -23 -93 -12 -135 15 -52 76 -109 132 -123 133
-34 300 4 394 91 l22 20 10 -24 c30 -78 111 -101 171 -49 29 25 28 25 62 -7
21 -20 40 -27 83 -31 78 -6 111 19 139 110 4 15 8 15 43 -3 58 -30 115 -25
158 12 19 17 38 44 43 61 l7 30 29 -23 c22 -17 46 -24 92 -27 55 -4 70 -1 108
22 76 45 144 144 161 238 l7 36 41 -14 c24 -9 54 -12 75 -8 47 9 100 57 108
100 7 40 8 40 42 16 47 -33 111 -52 176 -54 59 -1 65 -4 81 -31 22 -38 175
-240 187 -248 5 -3 6 -14 2 -25 -4 -14 -3 -15 4 -6 7 11 22 5 71 -27 97 -62
204 -75 364 -41 56 12 60 11 90 -11 146 -110 360 -233 463 -268 140 -46 221
-57 619 -76 171 -8 369 -24 440 -34 478 -71 707 -266 796 -679 39 -183 37
-562 -7 -1042 -55 -607 -168 -933 -443 -1277 -91 -114 -281 -309 -571 -586
-205 -196 -203 -189 -50 -151 30 8 83 14 119 14 64 0 65 -1 107 -45 23 -25 49
-45 58 -45 9 0 74 12 144 26 175 36 264 31 382 -21 138 -61 151 -64 243 -65
67 0 118 8 210 31 207 52 325 49 420 -11 l45 -28 124 80 c151 99 254 152 338
174 139 35 385 3 678 -90 116 -36 175 -35 236 6 84 57 107 66 172 73 84 9 226
-15 389 -65 225 -71 241 -74 375 -74 106 0 133 3 180 22 30 12 61 26 69 31 21
14 -2 44 -54 70 -32 16 -110 86 -234 211 -102 103 -271 258 -376 345 -405 338
-564 542 -630 810 -59 243 -70 470 -58 1180 l8 470 33 67 c25 52 47 78 101
121 196 159 416 267 691 341 52 14 266 59 475 101 434 87 516 107 745 177 460
142 738 392 853 768 2 8 -3 24 -12 35 -9 12 -10 15 -1 8 16 -14 34 -18 26 -5
-2 4 -1 14 3 21 5 8 12 -2 19 -31 9 -35 31 -62 116 -147 58 -58 103 -108 101
-112 -6 -9 163 -4 193 6 18 6 22 4 22 -12 0 -10 12 -37 26 -59 71 -109 221
-141 424 -89 23 5 27 1 43 -44 35 -99 145 -159 276 -148 91 7 174 41 226 94
42 41 44 42 72 28 140 -70 364 -54 419 30 l17 26 17 -29 c55 -90 168 -113 280
-57 83 42 132 116 123 185 -5 35 -3 37 26 43 17 4 49 24 71 44 101 96 105 297
6 338 -20 8 -45 15 -56 15 -24 0 -24 0 -5 36 19 36 19 104 1 148 -20 48 -73
103 -112 118 -37 13 -43 28 -18 49 18 14 44 62 44 80 0 9 -3 9 -14 0 -20 -16
-30 3 -12 22 15 14 16 40 3 53 -4 4 -7 -4 -7 -19 0 -14 -4 -29 -10 -32 -5 -3
-10 -16 -11 -28 -1 -21 -1 -21 -7 -2 -6 17 -13 19 -47 14 l-40 -6 39 -2 c62
-2 30 -19 -50 -26 l-72 -7 -4 153 c-4 138 -8 161 -32 224 -15 39 -32 74 -37
80 -5 5 -9 17 -9 27 0 28 -38 5 -46 -27 -8 -33 -20 -24 -29 22 -4 21 -13 52
-20 68 -7 17 -16 45 -20 63 -4 17 -11 32 -16 32 -5 0 -9 6 -9 13 0 18 -57 134
-83 172 l-22 30 -16 -115 c-8 -63 -18 -108 -21 -100 -3 8 -13 49 -23 90 -31
133 -85 278 -107 288 -5 2 -8 12 -8 22 0 10 -7 20 -15 24 -8 3 -15 15 -15 26
0 28 -104 145 -147 165 -19 9 -37 23 -40 31 -3 8 -12 14 -20 14 -8 0 -27 7
-43 15 -26 14 -30 14 -30 1 0 -8 6 -19 13 -23 8 -4 26 -27 41 -50 20 -29 33
-40 44 -36 10 3 7 -2 -6 -12 -15 -11 -36 -16 -57 -13 -18 2 -31 0 -29 -4 3 -4
23 -8 45 -8 36 0 47 -7 104 -64 69 -68 79 -96 46 -125 -15 -14 -19 -37 -24
-151 -5 -123 -14 -173 -38 -222 -5 -10 -9 -25 -9 -33 0 -8 -3 -15 -7 -15 -9 0
-33 -49 -33 -67 0 -7 -4 -13 -9 -13 -5 0 -23 -12 -39 -27 -54 -51 -64 -56
-113 -61 -63 -6 -92 2 -104 29 -5 13 -15 24 -20 26 -14 4 -35 -54 -35 -95 0
-22 -5 -32 -15 -32 -8 0 -15 -7 -15 -14 0 -8 -15 -26 -32 -40 -39 -29 -174
-49 -235 -35 -21 4 -57 9 -80 10 -43 3 -65 -10 -115 -66 -10 -12 -17 -15 -18
-7 0 6 -4 12 -10 12 -5 0 -7 -6 -5 -12 2 -7 -8 -22 -22 -32 -19 -14 -28 -16
-31 -7 -3 9 -7 8 -16 -3 -6 -9 -27 -17 -46 -18 -31 -2 -62 -28 -290 -255
l-254 -253 39 -42 c36 -39 37 -40 5 -10 -30 26 -39 30 -50 20 -12 -11 -12 -10
-1 5 25 32 -5 17 -44 -23 -35 -36 -37 -40 -17 -40 26 0 27 -10 6 -53 -41 -81
-267 -314 -374 -384 -68 -46 -137 -86 -150 -88 -18 -3 -62 -34 -105 -74 -37
-34 -41 -37 -15 -8 30 33 32 42 8 38 -4 0 -4 7 0 17 31 67 48 101 109 208 38
67 75 140 82 161 11 34 19 41 59 53 50 15 152 105 152 134 0 18 11 20 60 6 19
-5 56 -11 82 -13 45 -3 50 -1 95 45 l48 48 -255 255 c-139 139 -259 251 -264
248 -6 -3 -8 -3 -4 2 4 4 3 14 -3 22 -9 10 -15 11 -28 1 -13 -10 -14 -10 -4 1
17 19 -90 131 -119 126 -15 -3 -17 -1 -9 9 15 18 -10 40 -27 26 -8 -7 -9 -7
-3 1 13 16 -18 48 -41 44 -16 -3 -17 -1 -9 9 13 16 -9 41 -25 28 -5 -4 -6 -3
-2 2 10 13 -23 45 -44 41 -16 -3 -17 -1 -8 10 13 15 3 24 -24 19 -13 -2 -15 1
-8 8 15 15 -16 47 -40 43 -16 -3 -17 -1 -8 10 13 15 3 24 -24 19 -13 -2 -15 1
-8 8 15 15 -16 47 -40 43 -16 -3 -17 -1 -8 10 13 15 3 24 -24 19 -13 -2 -16 0
-8 8 8 8 0 22 -28 51 -22 22 -40 41 -40 44 0 9 72 -52 81 -69 6 -11 17 -17 25
-14 8 3 13 2 10 -3 -9 -13 62 -83 75 -75 8 4 9 3 5 -5 -5 -7 168 -187 454
-473 l460 -463 205 205 c112 112 202 207 199 212 -10 17 -35 7 -44 -17 -5 -14
-15 -25 -22 -25 -9 0 -8 3 2 10 12 7 10 9 -7 7 -12 0 -19 -5 -17 -9 7 -11 -68
-78 -80 -71 -5 3 -6 1 -2 -5 5 -8 -2 -12 -21 -12 -16 0 -34 -5 -41 -12 -13
-13 -93 -12 -102 2 -3 4 -24 13 -47 19 -35 10 -40 15 -37 34 2 12 2 16 -2 10
-3 -7 -12 -13 -20 -13 -20 0 -112 64 -156 110 -32 33 -38 45 -38 82 0 41 19
110 33 124 4 4 7 14 7 21 0 11 -12 13 -57 8 -95 -11 -205 24 -270 85 -18 17
-37 30 -42 30 -6 0 -11 5 -11 11 0 6 -10 25 -23 42 -40 56 -52 98 -50 175 1
40 12 108 23 149 24 88 24 88 -57 98 -29 3 -53 10 -53 14 0 5 -15 11 -32 15
-18 4 -50 18 -70 31 -21 14 -42 25 -48 25 -5 0 -10 4 -10 8 0 4 -14 16 -32 26
-29 18 -63 51 -133 131 -28 32 -75 121 -75 142 0 7 -7 13 -15 13 -9 0 -15 -9
-15 -23 0 -30 -42 -113 -78 -154 -35 -40 -107 -94 -163 -124 -24 -13 -46 -26
-49 -29 -12 -12 -51 -30 -65 -30 -8 0 -15 -3 -15 -7 0 -9 -48 -33 -66 -33 -7
0 -14 -5 -16 -10 -3 -11 -152 -17 -193 -9 -17 3 -20 -2 -22 -36 -2 -40 -19
-91 -38 -112 -26 -31 -34 -39 -51 -53 -11 -8 -68 -28 -129 -44 -146 -38 -374
-48 -484 -21 -39 9 -74 21 -77 26 -3 5 -14 9 -25 9 -10 0 -19 5 -19 11 0 5 -5
7 -10 4 -6 -4 -7 -11 -4 -17 4 -7 2 -8 -4 -4 -15 9 -55 -31 -46 -47 4 -7 4 -9
-1 -5 -11 11 -36 -12 -28 -25 3 -6 1 -7 -5 -3 -15 9 -55 -31 -46 -47 4 -7 4
-9 -1 -5 -11 11 -36 -12 -28 -25 3 -6 1 -7 -6 -3 -14 9 -83 -62 -74 -77 3 -6
1 -7 -5 -3 -14 9 -164 -142 -155 -157 3 -5 1 -7 -5 -3 -12 7 -359 -331 -354
-346 1 -5 -3 -6 -9 -2 -8 4 -9 3 -5 -5 6 -9 13 -9 29 3 12 8 21 19 20 24 -3
15 30 9 52 -10 11 -9 30 -25 42 -35 22 -17 22 -21 12 -88 -9 -61 -77 -278 -96
-309 -4 -6 -9 -20 -10 -30 -2 -11 -10 -27 -17 -35 -7 -9 -14 -23 -14 -31 -1
-8 -12 -58 -26 -110 -21 -76 -26 -119 -26 -211 l0 -116 -110 -48 c-135 -58
-239 -121 -304 -183 l-48 -47 6 135 c11 256 65 432 206 680 5 8 21 42 37 75
15 33 31 62 34 65 5 4 5 42 0 59 0 3 -13 -6 -28 -20 l-28 -24 22 25 c22 25 22
27 5 45 -17 19 -16 19 4 2 20 -16 22 -16 37 1 16 17 34 70 51 145 6 23 12 28
34 27 80 -6 64 -19 477 397 l394 397 -25 23 c-13 12 -24 27 -24 33 0 5 -4 10
-8 10 -19 0 -33 75 -23 125 5 27 8 52 6 53 -2 2 -27 -1 -55 -7 -61 -13 -229
-14 -285 -1 -95 21 -129 32 -173 55 -51 27 -102 68 -102 84 0 5 -4 11 -8 13
-4 2 -21 21 -37 42 l-30 40 -6 -79 c-5 -78 -5 -78 -53 -121 -26 -24 -64 -48
-84 -54 -47 -13 -102 -13 -102 0 0 6 -4 10 -9 10 -4 0 -10 -33 -13 -74 -4 -62
-9 -78 -31 -102 -15 -16 -27 -31 -27 -34 0 -3 -18 -16 -40 -30 -22 -14 -40
-28 -40 -32 0 -5 -8 -8 -18 -8 -10 0 -23 -5 -29 -11 -7 -7 -39 -10 -86 -8 -60
4 -82 9 -115 32 -23 15 -44 27 -47 27 -3 0 -5 -16 -5 -35 0 -19 -6 -47 -12
-62 -13 -27 -43 -63 -53 -63 -3 0 -15 -8 -25 -18 -26 -24 -98 -62 -118 -62
-15 0 -15 -2 -2 -10 8 -5 12 -10 7 -10 -4 0 87 -95 202 -211 l210 -212 25 17
c14 9 34 26 46 38 14 15 20 17 20 7 0 -8 7 -26 14 -41 13 -25 13 -34 -1 -75
-20 -60 -19 -60 -41 -40 -18 16 -20 16 -38 -5 -19 -23 -19 -23 2 -6 16 14 23
15 32 6 18 -18 16 -27 -28 -134 -44 -108 -116 -234 -134 -234 -30 0 -174 257
-195 351 -11 48 -15 199 -5 199 4 0 14 -8 23 -18 36 -41 107 -72 174 -77 87
-6 98 8 46 57 -21 20 -41 33 -44 27 -4 -5 -11 -7 -16 -3 -6 3 -6 10 -1 17 6 8
-2 23 -24 44 -18 18 -36 28 -39 23 -4 -6 -11 -8 -16 -4 -6 3 -6 10 -1 17 6 8
-2 23 -24 44 -18 18 -36 28 -39 23 -4 -6 -11 -8 -16 -4 -6 3 -6 10 -1 17 6 8
-2 23 -24 44 -18 18 -36 28 -39 23 -4 -6 -11 -8 -16 -4 -6 3 -6 10 -1 17 6 8
-2 23 -24 44 -18 18 -36 28 -39 23 -4 -6 -11 -8 -16 -4 -6 4 -6 11 1 19 7 8 7
15 1 19 -5 4 -12 2 -16 -4 -3 -5 -14 -10 -24 -10 -10 0 -32 -7 -49 -15 -16 -9
-60 -18 -96 -22 -80 -7 -139 12 -190 63 -35 35 -56 43 -56 23 0 -7 -19 -30
-43 -53 -61 -60 -116 -71 -305 -63 -81 4 -162 9 -178 13 -45 9 -64 48 -64 131
0 38 -3 72 -6 76 -3 3 -27 -5 -52 -18 -68 -33 -164 -55 -240 -54 l-67 0 -33
72 c-65 141 -85 205 -80 267 1 27 0 50 -4 50 -4 0 -18 -11 -31 -24 -44 -44
-57 -42 -131 30 -66 64 -68 68 -62 105 3 21 2 40 -4 44 -18 11 -11 32 25 75
39 47 43 55 18 41 -16 -8 -18 -3 -21 37 -1 25 -6 49 -11 52 -4 3 -14 35 -21
73 -7 37 -15 67 -19 67 -3 0 -5 33 -3 73 2 39 -1 99 -6 132 -8 53 -10 55 -11
20 -1 -22 -6 -47 -12 -55 -8 -11 -9 -1 -4 38 3 28 3 52 0 52 -3 0 -5 -8 -5
-18z m0 -134 c0 -5 -4 -8 -10 -8 -5 0 -10 10 -10 23 0 18 2 19 10 7 5 -8 10
-18 10 -22z m-10 -68 c0 -11 -4 -20 -9 -20 -5 0 -7 9 -4 20 3 11 7 20 9 20 2
0 4 -9 4 -20z m7765 -220 c3 -5 1 -10 -4 -10 -6 0 -11 5 -11 10 0 6 2 10 4 10
3 0 8 -4 11 -10z m-2634 -457 c13 -16 12 -17 -3 -4 -10 7 -18 15 -18 17 0 8 8
3 21 -13z m-46 -33 c10 -11 16 -20 13 -20 -3 0 -13 9 -23 20 -10 11 -16 20
-13 20 3 0 13 -9 23 -20z m-6675 -530 c0 -5 -4 -10 -10 -10 -5 0 -10 5 -10 10
0 6 5 10 10 10 6 0 10 -4 10 -10z m40 -80 c0 -5 -4 -10 -10 -10 -5 0 -10 5
-10 10 0 6 5 10 10 10 6 0 10 -4 10 -10z m40 0 c0 -5 -4 -10 -10 -10 -5 0 -10
5 -10 10 0 6 5 10 10 10 6 0 10 -4 10 -10z m3328 -51 c-8 -6 -9 -9 -2 -9 8 0
12 -33 13 -102 1 -57 3 -114 6 -128 30 -182 96 -339 176 -418 l39 -40 -60
-108 c-33 -60 -60 -115 -60 -123 0 -29 87 70 116 132 16 34 32 64 37 65 4 2 7
12 7 22 0 10 4 20 9 22 15 6 176 291 210 373 41 100 48 110 69 93 13 -12 14
-10 1 9 -12 20 -11 24 6 37 19 14 20 13 25 -17 3 -18 2 -39 -2 -47 -4 -8 -17
-37 -29 -65 -12 -27 -39 -81 -61 -120 -85 -149 -122 -211 -146 -248 -14 -20
-22 -40 -19 -43 6 -6 -41 -76 -56 -82 -4 -2 -5 -8 -2 -12 3 -5 -3 -26 -14 -46
-17 -32 -88 -241 -119 -354 -9 -32 -10 -29 -11 33 -1 71 21 199 44 255 17 40
7 41 -30 2 -15 -16 -31 -27 -35 -25 -4 2 -15 -20 -26 -50 -20 -60 -29 -67 -38
-32 -3 12 -44 92 -92 177 -151 272 -281 555 -325 709 -11 38 -11 44 4 53 35
19 65 62 71 99 3 22 10 39 15 39 5 0 28 -11 52 -24 24 -14 55 -26 69 -27 55
-5 99 2 114 17 12 12 16 12 16 2 1 -7 8 1 18 17 l17 30 3 -29 c2 -16 -2 -32
-10 -37z m2278 2 c13 -12 97 -31 140 -31 34 0 36 -1 29 -27 -3 -16 -11 -29
-16 -31 -5 -2 -9 -8 -9 -13 0 -14 -78 -138 -125 -199 -58 -74 -255 -270 -272
-270 -5 0 -197 -142 -203 -150 -10 -14 -161 -92 -167 -87 -3 3 4 18 15 34 31
43 132 248 132 266 0 10 4 17 8 17 5 0 24 52 43 116 l34 115 30 -5 c41 -8 141
19 189 51 73 48 126 124 126 181 0 40 21 55 46 33z m-3027 -121 c38 -19 120
-14 153 10 15 11 28 17 28 13 0 -4 7 -60 15 -123 18 -142 63 -316 109 -418
138 -309 202 -476 221 -574 7 -38 10 -67 6 -65 -107 57 -218 86 -341 87 -74 1
-76 2 -167 105 -93 106 -138 209 -169 390 -9 55 -20 118 -24 140 -5 22 -15 76
-23 120 -8 44 -20 91 -26 105 -13 33 -71 181 -71 183 0 1 26 2 58 2 66 0 104
19 130 65 l17 29 30 -28 c16 -16 41 -34 54 -41z m2051 -14 c0 -63 32 -101 105
-123 71 -22 200 -11 268 23 16 9 27 10 27 4 0 -24 -63 -147 -107 -208 -27 -37
-56 -80 -66 -96 -10 -16 -24 -34 -30 -41 -7 -6 -37 -40 -67 -75 -70 -80 -84
-94 -150 -153 l-53 -48 21 -21 c18 -19 23 -20 38 -7 24 20 181 214 229 283 68
99 185 236 200 236 20 0 20 -2 -14 -68 -57 -113 -230 -333 -360 -458 -21 -20
-31 -38 -28 -48 4 -10 1 -13 -8 -10 -8 3 -22 -1 -30 -10 -46 -45 -238 -176
-260 -176 -4 0 19 21 52 47 32 26 90 77 128 115 l70 67 -22 22 -21 22 -75 -62
c-40 -33 -77 -61 -80 -61 -19 0 2 174 34 294 8 30 13 36 21 25 7 -10 8 -8 3 8
-4 13 5 60 21 110 39 130 54 209 54 295 0 75 1 78 28 92 16 8 34 22 41 30 19
23 31 20 31 -8z m1652 -37 c12 -6 39 -11 60 -11 39 1 39 0 33 -31 -8 -39 -63
-224 -75 -252 -4 -11 -18 -46 -30 -78 -30 -76 -94 -182 -144 -235 -22 -23 -57
-66 -78 -95 -139 -188 -237 -295 -335 -363 -53 -37 -351 -144 -553 -198 -118
-32 -274 -56 -363 -56 l-68 0 53 77 c29 42 74 100 100 128 38 42 45 55 35 65
-10 12 -9 12 4 2 13 -10 19 -9 30 4 16 19 234 184 244 184 6 0 165 118 175
130 3 3 21 16 40 27 19 12 44 30 55 40 11 10 46 40 78 66 31 27 76 66 99 87
22 22 46 36 51 33 6 -3 7 -1 3 5 -3 6 8 25 24 44 55 59 164 210 215 296 21 37
34 50 45 45 36 -15 126 -14 163 1 36 16 97 70 97 87 0 12 17 11 42 -2z m-4144
-51 c3 -7 17 -42 32 -78 29 -66 35 -89 90 -335 17 -77 44 -175 60 -218 l28
-79 -25 7 c-25 6 -79 39 -123 74 -21 18 -23 22 -10 32 13 9 13 10 -1 6 -11 -4
-46 23 -105 81 -132 129 -344 294 -412 322 -18 7 -31 15 -30 19 2 3 12 22 22
42 l18 36 59 -15 c88 -22 144 -10 191 39 21 22 38 50 38 62 0 22 3 23 82 21
59 -1 83 -6 86 -16z m795 -98 c14 -36 42 -114 62 -175 45 -138 37 -120 130
-310 62 -129 115 -257 115 -281 0 -2 -6 -4 -14 -4 -24 0 -93 87 -131 165 -43
89 -124 332 -164 493 -51 208 -51 242 2 112z m1047 45 c13 -14 21 -25 18 -25
-2 0 -15 11 -28 25 -13 14 -21 25 -18 25 2 0 15 -11 28 -25z m-4370 -5 c0 -5
-5 -10 -11 -10 -5 0 -7 5 -4 10 3 6 8 10 11 10 2 0 4 -4 4 -10z m-990 -31 c3
-4 15 -9 28 -13 12 -4 22 -12 22 -17 0 -13 -18 -11 -22 3 -3 7 -20 12 -40 11
-31 -1 -35 2 -35 22 0 21 2 22 21 12 11 -7 23 -15 26 -18z m846 -16 c2 -14 -1
-34 -6 -42 -7 -11 -9 -2 -10 33 0 51 11 57 16 9z m7065 11 c27 -9 49 -20 49
-24 0 -11 -149 -160 -160 -160 -6 0 -10 5 -10 10 0 15 62 190 67 190 2 0 26
-7 54 -16z m-5779 -12 c39 -54 110 -67 179 -32 l39 21 -4 -34 c-5 -45 17 -107
51 -137 27 -25 69 -126 115 -280 10 -36 23 -74 28 -85 5 -11 21 -56 35 -100
15 -44 39 -107 56 -139 16 -33 28 -60 27 -62 -6 -5 -210 35 -256 50 -132 44
-299 169 -442 331 -47 53 -115 129 -152 168 -43 45 -68 80 -68 94 0 21 5 23
53 25 58 1 56 1 112 12 74 14 163 87 187 153 14 38 21 41 40 15z m5956 -113
c21 -52 83 -99 148 -113 32 -7 114 18 114 35 0 5 7 9 15 9 8 0 15 -8 15 -18 0
-9 11 -34 25 -54 14 -20 25 -41 25 -47 0 -5 -15 -31 -32 -57 -18 -25 -37 -53
-43 -63 -5 -9 -12 -18 -15 -21 -3 -3 -19 -23 -35 -45 -61 -82 -161 -178 -225
-215 -148 -88 -300 -128 -635 -166 l-59 -6 38 43 c21 24 47 51 56 59 18 15
103 123 225 285 33 44 62 82 66 85 3 3 27 32 54 65 26 33 52 63 57 66 9 6 75
101 146 212 l37 57 6 -42 c3 -24 11 -55 17 -69z m-7958 75 c24 -14 24 -15 -18
-8 -34 5 -48 2 -63 -12 -17 -16 -19 -16 -19 -1 0 10 7 17 15 17 8 0 15 5 15
10 0 15 41 11 70 -6z m429 -22 c-5 -2 -17 -1 -27 3 -15 6 -15 8 3 15 12 4 23
3 27 -4 4 -6 3 -13 -3 -14z m2207 -42 c24 -12 61 -20 93 -20 63 0 120 -30 179
-94 22 -24 50 -50 62 -59 24 -17 103 -93 200 -192 70 -72 198 -179 320 -265
94 -68 160 -121 160 -129 0 -3 -201 -8 -448 -9 l-447 -4 -14 24 c-8 12 -40 73
-71 133 -55 109 -108 197 -122 203 -5 2 -8 7 -8 12 0 4 -17 37 -39 72 -34 57
-101 190 -101 202 0 2 13 7 29 11 41 9 99 71 112 119 20 75 19 73 37 43 9 -15
35 -36 58 -47z m-2562 29 c-29 -12 -36 -10 -22 5 7 7 19 11 27 8 11 -4 10 -7
-5 -13z m309 7 c4 -10 0 -12 -14 -9 -10 3 -16 9 -13 14 8 13 21 11 27 -5z
m8491 -26 c-6 -6 -10 -3 -10 10 0 13 4 16 10 10 7 -7 7 -13 0 -20z m-8861 13
c-13 -2 -35 -2 -50 0 -16 2 -5 4 22 4 28 0 40 -2 28 -4z m260 0 c-29 -2 -78
-2 -110 0 -32 2 -8 3 52 3 61 0 87 -1 58 -3z m-510 -45 c3 -21 2 -38 -4 -38
-5 0 -9 19 -9 42 0 49 5 47 13 -4z m47 27 c0 -8 -2 -15 -4 -15 -2 0 -6 7 -10
15 -3 8 -1 15 4 15 6 0 10 -7 10 -15z m850 -5 c-9 -17 -30 -28 -30 -16 0 16
15 36 26 36 12 0 12 -4 4 -20z m4560 7 c0 -2 -10 -12 -22 -23 l-23 -19 19 23
c18 21 26 27 26 19z m-5365 -77 c-27 -12 -43 -12 -25 0 8 5 22 9 30 9 10 0 8
-3 -5 -9z m381 -28 c-4 -3 -11 0 -16 8 -15 24 -11 33 6 15 9 -9 13 -19 10 -23z
m64 24 c0 -9 -8 -12 -25 -8 -37 7 -41 22 -6 22 20 0 31 -5 31 -14z m190 4 c0
-5 -7 -10 -15 -10 -8 0 -15 5 -15 10 0 6 7 10 15 10 8 0 15 -4 15 -10z m73
-14 c21 6 21 6 3 -9 -17 -12 -22 -12 -34 -1 -7 8 -10 19 -5 26 5 10 8 8 11 -5
3 -13 9 -16 25 -11z m-416 -23 c-3 -10 -5 -4 -5 12 0 17 2 24 5 18 2 -7 2 -21
0 -30z m4993 34 c0 -2 -10 -12 -22 -23 l-23 -19 19 23 c18 21 26 27 26 19z
m-5250 -22 c-7 -8 -17 -15 -22 -15 -6 0 -5 7 2 15 7 8 17 15 22 15 6 0 5 -7
-2 -15z m611 -29 c-6 -14 -17 -26 -25 -26 -8 0 -16 -4 -18 -10 -2 -5 -19 -3
-43 6 l-40 14 42 -6 c38 -5 43 -3 64 25 26 36 34 35 20 -3z m-750 -48 c-8 -20
-9 -18 -9 15 1 26 4 34 10 24 4 -9 4 -26 -1 -39z m531 40 c3 -8 22 -12 49 -11
l44 1 -45 -7 c-43 -8 -80 2 -80 21 0 13 28 9 32 -4z m-356 -16 c-10 -2 -22 0
-28 6 -6 6 0 7 19 4 21 -5 23 -7 9 -10z m184 4 c0 -2 -7 -6 -15 -10 -8 -3 -15
-1 -15 4 0 6 7 10 15 10 8 0 15 -2 15 -4z m4960 1 c0 -2 -12 -14 -27 -28 l-28
-24 24 28 c23 25 31 32 31 24z m-5042 -17 c17 0 32 -4 32 -10 0 -16 -74 -12
-96 6 -18 15 -18 15 6 10 14 -3 40 -6 58 -6z m-548 -15 c0 -8 -9 -15 -20 -15
-11 0 -20 7 -20 15 0 8 9 15 20 15 11 0 20 -7 20 -15z m915 5 c17 -7 16 -9
-10 -9 -16 0 -39 4 -50 9 -17 7 -16 9 10 9 17 0 39 -4 50 -9z m-961 -45 c3 -8
1 -15 -4 -15 -6 0 -10 7 -10 15 0 8 2 15 4 15 2 0 6 -7 10 -15z m81 -14 c-6
-5 -25 10 -25 20 0 5 6 4 14 -3 8 -7 12 -15 11 -17z m192 3 c-3 -3 -12 -4 -19
-1 -8 3 -5 6 6 6 11 1 17 -2 13 -5z m5283 3 c0 -2 -15 -16 -32 -33 l-33 -29
29 33 c28 30 36 37 36 29z m-5400 -17 c13 -9 13 -10 0 -9 -8 0 -24 4 -35 9
l-20 9 20 0 c11 0 27 -4 35 -9z m6045 -10 c10 -11 16 -20 13 -20 -3 0 -13 9
-23 20 -10 11 -16 20 -13 20 3 0 13 -9 23 -20z m-6215 -59 c0 -11 -26 -22 -34
-14 -12 12 -5 23 14 23 11 0 20 -4 20 -9z m-40 -60 c0 -11 -39 -59 -40 -49 0
14 23 58 32 58 4 0 8 -4 8 -9z m6570 -196 c13 -14 21 -25 18 -25 -2 0 -15 11
-28 25 -13 14 -21 25 -18 25 2 0 15 -11 28 -25z m-1350 -48 c0 -2 -15 -16 -32
-33 l-33 -29 29 33 c28 30 36 37 36 29z m1430 -32 c13 -14 21 -25 18 -25 -2 0
-15 11 -28 25 -13 14 -21 25 -18 25 2 0 15 -11 28 -25z m-1510 -48 c0 -2 -15
-16 -32 -33 l-33 -29 29 33 c28 30 36 37 36 29z m1595 -37 c10 -11 16 -20 13
-20 -3 0 -13 9 -23 20 -10 11 -16 20 -13 20 3 0 13 -9 23 -20z m2095 7 c0 -1
-51 -52 -112 -112 l-113 -110 110 113 c102 104 115 117 115 109z m-3780 -60
c0 -2 -12 -14 -27 -28 l-28 -24 24 28 c23 25 31 32 31 24z m-80 -80 c0 -2 -12
-14 -27 -28 l-28 -24 24 28 c23 25 31 32 31 24z m-1765 -77 c10 -11 16 -20 13
-20 -3 0 -13 9 -23 20 -10 11 -16 20 -13 20 3 0 13 -9 23 -20z m1685 -3 c0 -2
-15 -16 -32 -33 l-33 -29 29 33 c28 30 36 37 36 29z m192 -606 c30 -58 59
-106 65 -108 5 -2 15 8 23 22 7 14 17 25 21 25 13 0 49 -84 61 -146 20 -92 16
-613 -6 -789 -24 -199 -50 -337 -61 -328 -5 4 -4 1 3 -8 6 -9 9 -18 6 -21 -3
-3 7 -15 22 -27 15 -11 23 -21 19 -21 -5 0 -17 7 -27 16 -14 14 -18 14 -23 3
-13 -38 -67 -278 -85 -384 -78 -449 -150 -675 -250 -784 -22 -24 -42 -42 -45
-39 -2 2 -8 22 -13 43 l-8 39 -23 -25 c-12 -13 -47 -57 -78 -97 -80 -106 -158
-187 -199 -207 -20 -9 -38 -14 -41 -12 -3 3 9 34 26 69 32 64 72 120 193 269
75 92 90 118 182 304 84 172 168 418 201 595 29 152 51 318 44 337 -4 10 -2
27 4 38 7 13 13 119 15 285 3 213 0 308 -17 485 -27 283 -66 523 -97 593 -13
30 -24 57 -24 61 1 11 56 -82 112 -188z m274 -8 c114 -339 145 -715 109 -1307
-16 -254 -16 -298 -4 -313 9 -11 10 -14 2 -9 -10 5 -13 -12 -13 -73 0 -45 -4
-81 -9 -81 -13 0 -38 87 -46 160 -6 56 -12 70 -43 104 l-37 40 38 -32 c21 -18
39 -32 40 -32 1 0 2 51 3 113 0 61 5 216 11 342 16 388 -16 851 -76 1105 -12
47 -20 94 -20 105 l1 20 5 -20 c3 -11 21 -66 39 -122z m-337 -1132 c1 -32 8
-52 24 -70 12 -14 14 -19 5 -12 -23 18 -26 10 -31 -104 -4 -94 -35 -207 -64
-235 -14 -14 -15 -5 -9 90 20 344 20 328 0 352 -16 19 -16 20 -1 9 9 -7 17
-12 17 -10 0 2 2 51 4 109 2 58 5 141 6 185 2 78 3 76 26 -95 12 -96 23 -195
23 -219z m1741 -124 c0 -2 -15 -16 -32 -33 l-33 -29 29 33 c28 30 36 37 36 29z
m-80 -80 c0 -2 -10 -12 -22 -23 l-23 -19 19 23 c18 21 26 27 26 19z m-1404
-99 l29 -33 -32 29 c-18 17 -33 31 -33 33 0 8 8 1 36 -29z m1324 19 c0 -2 -12
-14 -27 -28 l-28 -24 24 28 c23 25 31 32 31 24z m-80 -80 c0 -2 -12 -14 -27
-28 l-28 -24 24 28 c23 25 31 32 31 24z m-1185 -349 c27 -234 32 -403 14 -507
-26 -150 -81 -208 -317 -337 -93 -50 -104 -57 -182 -114 -118 -88 -141 -103
-147 -97 -10 10 99 157 117 157 38 0 141 62 177 108 21 26 41 49 45 52 9 7 63
147 76 200 16 64 29 142 51 325 11 88 23 183 27 210 10 81 43 196 72 253 l27
54 7 -44 c5 -24 19 -141 33 -260z m1105 269 c0 -2 -10 -12 -22 -23 l-23 -19
19 23 c18 21 26 27 26 19z m-924 -99 l29 -33 -32 29 c-18 17 -33 31 -33 33 0
8 8 1 36 -29z m844 19 c0 -2 -10 -12 -22 -23 l-23 -19 19 23 c18 21 26 27 26
19z m-764 -99 l29 -33 -32 29 c-18 17 -33 31 -33 33 0 8 8 1 36 -29z m694 29
c0 -2 -12 -14 -27 -28 l-28 -24 24 28 c23 25 31 32 31 24z m-614 -109 l29 -33
-32 29 c-18 17 -33 31 -33 33 0 8 8 1 36 -29z m524 19 c0 -2 -15 -16 -32 -33
l-33 -29 29 33 c28 30 36 37 36 29z m-444 -99 l29 -33 -32 29 c-18 17 -33 31
-33 33 0 8 8 1 36 -29z m318 -31 c-32 -35 -68 -69 -79 -76 -21 -14 34 47 95
105 56 53 48 39 -16 -29z m-238 -49 l29 -33 -32 29 c-18 17 -33 31 -33 33 0 8
8 1 36 -29z m109 -70 c11 9 -5 -10 -35 -43 -30 -33 -82 -85 -115 -115 -34 -31
-20 -14 33 41 l92 94 -22 25 -23 24 25 -22 c25 -21 27 -21 45 -4z m41 -70 c2
1 4 -1 5 -5 0 -5 8 -17 17 -27 9 -11 12 -17 6 -13 -11 7 -28 -151 -39 -363 -6
-121 -12 -150 -31 -150 -12 0 -16 10 -29 73 -4 19 21 213 29 226 3 4 12 61 20
126 l16 119 -23 25 -22 26 24 -20 c13 -11 25 -19 27 -17z m90 -100 l29 -33
-32 29 c-18 17 -33 31 -33 33 0 8 8 1 36 -29z m353 -74 c7 -47 14 -133 16
-190 2 -100 4 -107 31 -137 l29 -32 -31 28 -31 28 -7 -25 c-3 -14 -10 -26 -15
-26 -13 0 -39 120 -28 127 6 4 7 1 2 -7 -5 -9 -4 -11 4 -6 8 5 9 12 3 19 -5 7
-9 32 -8 57 1 25 3 91 4 148 1 56 6 102 10 102 4 0 14 -39 21 -86z m-699 23
c0 -2 -17 -19 -37 -38 l-38 -34 34 38 c33 34 41 42 41 34z m426 -29 l29 -33
-32 29 c-18 17 -33 31 -33 33 0 8 8 1 36 -29z m-506 -51 c0 -2 -17 -19 -37
-38 l-38 -34 34 38 c33 34 41 42 41 34z m590 -32 c13 -14 21 -25 18 -25 -2 0
-15 11 -28 25 -13 14 -21 25 -18 25 2 0 15 -11 28 -25z m-670 -48 c0 -2 -17
-19 -37 -38 l-38 -34 34 38 c33 34 41 42 41 34z m740 -22 c13 -14 21 -25 18
-25 -2 0 -15 11 -28 25 -13 14 -21 25 -18 25 2 0 15 -11 28 -25z m-820 -58 c0
-2 -17 -19 -37 -38 l-38 -34 34 38 c33 34 41 42 41 34z m-150 -152 c-41 -41
-77 -75 -79 -75 -3 0 28 34 69 75 41 41 77 75 79 75 3 0 -28 -34 -69 -75z
m1210 -30 c13 -14 21 -25 18 -25 -2 0 -15 11 -28 25 -13 14 -21 25 -18 25 2 0
15 -11 28 -25z m-1300 -58 c0 -2 -17 -19 -37 -38 l-38 -34 34 38 c33 34 41 42
41 34z m1390 -32 c13 -14 21 -25 18 -25 -2 0 -15 11 -28 25 -13 14 -21 25 -18
25 2 0 15 -11 28 -25z m-1470 -48 c0 -2 -17 -19 -37 -38 l-38 -34 34 38 c33
34 41 42 41 34z m1550 -32 c13 -14 21 -25 18 -25 -2 0 -15 11 -28 25 -13 14
-21 25 -18 25 2 0 15 -11 28 -25z m-1660 -80 c-19 -19 -37 -35 -42 -35 -8 0
63 69 71 70 3 0 -10 -16 -29 -35z m1740 0 c13 -14 21 -25 18 -25 -2 0 -15 11
-28 25 -13 14 -21 25 -18 25 2 0 15 -11 28 -25z m-1790 -48 c0 -2 -17 -19 -37
-38 l-38 -34 34 38 c33 34 41 42 41 34z m1860 -22 c13 -14 21 -25 18 -25 -2 0
-15 11 -28 25 -13 14 -21 25 -18 25 2 0 15 -11 28 -25z m-1950 -68 c0 -2 -12
-14 -27 -28 l-28 -24 24 28 c23 25 31 32 31 24z m2040 -22 c13 -14 21 -25 18
-25 -2 0 -15 11 -28 25 -13 14 -21 25 -18 25 2 0 15 -11 28 -25z m-2120 -58
c0 -2 -12 -14 -27 -28 l-28 -24 24 28 c23 25 31 32 31 24z"/>
<path d="M5791 6614 c0 -11 3 -14 6 -6 3 7 2 16 -1 19 -3 4 -6 -2 -5 -13z"/>
<path d="M7655 6190 c-3 -6 1 -7 9 -4 18 7 21 14 7 14 -6 0 -13 -4 -16 -10z"/>
<path d="M8480 6011 c0 -6 4 -13 10 -16 6 -3 7 1 4 9 -7 18 -14 21 -14 7z"/>
<path d="M3067 6256 c-4 -10 -1 -13 9 -9 15 6 19 23 5 23 -5 0 -11 -7 -14 -14z"/>
<path d="M2973 6238 c-22 -29 -22 -35 0 -33 34 4 34 4 41 21 4 9 2 13 -5 8 -6
-4 -15 -1 -19 5 -5 9 -9 9 -17 -1z m17 -18 c0 -5 -4 -10 -10 -10 -5 0 -10 5
-10 10 0 6 5 10 10 10 6 0 10 -4 10 -10z"/>
<path d="M3027 6217 c-3 -8 1 -14 8 -14 7 0 11 6 8 14 -3 7 -6 13 -8 13 -2 0
-5 -6 -8 -13z"/>
<path d="M9026 6293 c-6 -14 -5 -15 5 -6 7 7 10 15 7 18 -3 3 -9 -2 -12 -12z"/>
<path d="M5700 3626 c0 -2 8 -10 18 -17 15 -13 16 -12 3 4 -13 16 -21 21 -21
13z"/>
<path d="M1531 8394 c0 -11 3 -14 6 -6 3 7 2 16 -1 19 -3 4 -6 -2 -5 -13z"/>
<path d="M11202 8322 c-2 -38 0 -43 12 -33 10 8 16 9 21 1 3 -5 2 -10 -4 -10
-5 0 -12 -43 -14 -97 -6 -149 -29 -220 -88 -284 -40 -42 -88 -69 -123 -69 -13
0 -31 -6 -38 -13 -107 -102 -212 -144 -330 -133 -39 3 -78 12 -86 18 -8 7 -23
17 -35 23 -11 5 -25 19 -31 30 -6 11 -14 22 -17 25 -3 3 -12 22 -20 43 -15 44
-21 46 -39 11 -19 -34 -87 -64 -165 -71 -87 -8 -167 21 -224 82 -23 24 -41 49
-41 56 0 7 -8 5 -20 -6 -21 -19 -22 -18 -70 31 -27 27 -50 54 -50 60 0 7 -7
14 -15 18 -8 3 -15 12 -15 21 0 8 -3 15 -8 15 -4 0 -14 14 -21 32 -23 51 -25
13 -3 -45 11 -29 34 -97 52 -152 17 -54 45 -119 61 -143 16 -23 29 -46 29 -51
0 -15 102 -121 116 -121 9 0 12 -5 9 -10 -4 -7 -29 -9 -61 -6 -73 7 -77 -7
-25 -84 23 -33 41 -62 41 -65 0 -26 202 -235 227 -235 7 0 13 -3 13 -7 0 -5
19 -20 43 -35 50 -32 121 -43 211 -33 65 6 66 7 66 36 0 16 -4 29 -9 29 -10 0
-24 30 -17 37 2 2 31 -3 64 -11 62 -16 150 -19 236 -8 37 5 50 12 52 25 1 11
6 22 10 25 4 4 5 0 1 -10 -3 -9 2 -23 14 -34 19 -17 34 -13 34 9 0 6 20 17 44
24 25 7 47 16 50 21 3 4 25 14 48 21 55 18 193 116 193 138 0 4 9 14 20 21 11
7 20 18 20 26 0 7 7 19 15 26 8 7 22 26 30 44 19 37 32 120 19 115 -29 -12
-132 -106 -128 -117 2 -7 -1 -10 -6 -7 -13 8 -82 -64 -73 -78 3 -6 1 -7 -5 -3
-15 9 -85 -61 -76 -76 4 -7 3 -8 -5 -4 -7 5 -41 -22 -91 -73 -43 -45 -82 -81
-86 -81 -3 0 -2 6 5 13 8 10 7 17 -1 25 -9 9 -7 11 9 8 25 -5 56 27 41 42 -7
7 -5 10 8 8 27 -5 37 4 24 19 -9 11 -8 13 8 10 24 -4 55 28 40 43 -7 7 -5 10
8 8 27 -5 37 4 24 19 -9 11 -8 13 8 10 24 -4 55 28 40 43 -7 7 -5 10 8 8 27
-5 37 4 24 19 -9 11 -8 13 8 10 21 -4 57 31 42 40 -5 3 -6 13 -3 21 5 15 7 15
15 0 5 -9 14 -14 19 -10 6 4 6 11 -1 19 -9 11 -8 13 7 11 25 -5 45 12 61 54 8
19 23 58 34 85 16 41 20 77 21 206 1 100 -2 164 -9 180 -7 13 -20 50 -29 82
-22 73 -89 203 -110 211 -6 2 -11 -17 -13 -42z"/>
<path d="M8768 8293 c6 -2 18 -2 25 0 6 3 1 5 -13 5 -14 0 -19 -2 -12 -5z"/>
<path d="M4561 8244 c0 -11 3 -14 6 -6 3 7 2 16 -1 19 -3 4 -6 -2 -5 -13z"/>
<path d="M5876 8180 c-7 -47 -51 -177 -65 -194 -5 -6 -19 -29 -31 -51 -57
-104 -210 -263 -276 -287 -19 -6 -34 -16 -34 -20 0 -4 -8 -8 -17 -8 -10 0 -29
-6 -43 -13 -46 -24 -114 -21 -155 8 -21 14 -41 25 -45 25 -4 0 -22 27 -41 60
-35 61 -49 73 -49 43 0 -10 -17 -29 -38 -43 -20 -14 -40 -29 -43 -33 -3 -5
-43 -11 -87 -14 -87 -6 -115 1 -189 46 -52 31 -59 69 -18 91 35 18 28 42 -15
53 -19 5 -42 15 -51 23 -8 8 -19 14 -24 14 -4 0 -28 21 -52 47 -23 26 -43 42
-43 35 0 -22 -16 -13 -68 38 -28 28 -57 50 -64 50 -10 0 -10 -2 1 -9 10 -6 12
-19 7 -46 -6 -29 -3 -40 11 -51 17 -14 17 -15 -5 -9 l-22 6 21 -41 c19 -36 20
-43 7 -58 -26 -30 -30 -42 -13 -36 11 5 14 2 9 -11 -5 -13 -2 -16 12 -13 10 2
18 9 17 14 -1 6 11 8 28 6 25 -4 30 -10 35 -43 4 -22 11 -42 15 -45 5 -3 9
-17 9 -31 0 -37 80 -161 132 -205 143 -123 224 -152 433 -152 193 -1 315 27
315 72 0 22 2 23 70 18 64 -4 94 4 71 18 -5 4 -12 2 -16 -4 -4 -6 -11 -8 -16
-4 -6 3 -6 10 -1 17 6 8 -2 23 -23 44 -33 31 -56 34 -33 4 7 -9 0 -5 -15 8
-27 24 -36 38 -18 26 5 -3 12 -1 15 3 3 5 -8 19 -25 31 -16 12 -27 27 -23 32
3 6 40 -25 82 -68 101 -105 115 -113 161 -101 35 9 91 29 141 52 23 10 92 59
115 81 19 19 70 90 89 125 29 54 46 128 46 204 l0 69 -22 -25 c-36 -39 -77
-91 -96 -119 -16 -26 -17 -22 -17 137 0 117 -4 167 -12 176 -7 6 -13 26 -13
43 0 51 -16 62 -24 15z"/>
<path d="M4240 8089 c-68 -67 -86 -95 -42 -68 16 10 26 10 48 0 34 -15 45 -5
51 45 2 20 10 49 19 65 24 47 1 34 -76 -42z"/>
<path d="M4477 8133 c-11 -10 -9 -16 18 -47 24 -28 50 -31 26 -2 -6 8 -11 18
-10 22 5 30 -16 46 -34 27z"/>
<path d="M4726 8121 c-4 -5 3 -7 14 -4 23 6 26 13 6 13 -8 0 -17 -4 -20 -9z"/>
<path d="M8308 8123 c7 -3 16 -2 19 1 4 3 -2 6 -13 5 -11 0 -14 -3 -6 -6z"/>
<path d="M4177 7966 c-15 -18 -24 -36 -20 -39 3 -3 2 -22 -1 -43 -8 -39 -14
-40 -21 -4 -6 33 -12 35 -34 16 -16 -14 -19 -29 -17 -77 2 -57 3 -61 60 -119
32 -33 62 -60 67 -60 15 0 37 41 32 60 -3 11 4 32 16 48 l21 29 -41 -1 c-48
-1 -79 28 -79 75 0 44 35 71 83 63 36 -5 39 -3 35 14 -3 11 -2 26 3 33 5 9 -1
17 -23 26 -44 19 -53 17 -81 -21z m68 4 c13 -6 15 -9 5 -9 -8 0 -22 4 -30 9
-18 12 -2 12 25 0z"/>
<path d="M4315 7980 c3 -5 8 -10 11 -10 2 0 4 5 4 10 0 6 -5 10 -11 10 -5 0
-7 -4 -4 -10z"/>
<path d="M11674 7965 c8 -8 18 -15 22 -15 3 0 1 7 -6 15 -7 8 -17 15 -22 15
-5 0 -3 -7 6 -15z"/>
<path d="M8383 7920 c0 -25 2 -35 4 -22 2 12 2 32 0 45 -2 12 -4 2 -4 -23z"/>
<path d="M11728 7909 c12 -20 18 -40 14 -44 -4 -5 1 -5 11 -2 9 4 17 2 17 -3
0 -5 -8 -14 -17 -19 -15 -9 -15 -10 -2 -11 15 0 39 18 39 31 0 7 -38 48 -65
69 -17 14 -17 12 3 -21z"/>
<path d="M12408 7913 c7 -3 16 -2 19 1 4 3 -2 6 -13 5 -11 0 -14 -3 -6 -6z"/>
<path d="M4402 7894 c10 -10 20 -16 22 -13 3 3 -5 11 -17 18 -21 13 -21 12 -5
-5z"/>
<path d="M1165 7890 c-3 -5 -1 -10 4 -10 6 0 11 5 11 10 0 6 -2 10 -4 10 -3 0
-8 -4 -11 -10z"/>
<path d="M11516 7885 c-9 -26 -7 -32 5 -12 6 10 9 21 6 23 -2 3 -7 -2 -11 -11z"/>
<path d="M4407 7856 c-4 -10 -1 -13 9 -9 15 6 19 23 5 23 -5 0 -11 -7 -14 -14z"/>
<path d="M4358 7843 c7 -3 16 -2 19 1 4 3 -2 6 -13 5 -11 0 -14 -3 -6 -6z"/>
<path d="M8225 7840 c3 -5 8 -10 11 -10 2 0 4 5 4 10 0 6 -5 10 -11 10 -5 0
-7 -4 -4 -10z"/>
<path d="M11441 7834 c0 -11 3 -14 6 -6 3 7 2 16 -1 19 -3 4 -6 -2 -5 -13z"/>
<path d="M8340 7829 c0 -5 5 -7 10 -4 6 3 10 8 10 11 0 2 -4 4 -10 4 -5 0 -10
-5 -10 -11z"/>
<path d="M4297 7811 c-4 -17 -3 -21 5 -13 5 5 8 16 6 23 -3 8 -7 3 -11 -10z"/>
<path d="M11400 7810 c0 -5 5 -10 11 -10 5 0 7 5 4 10 -3 6 -8 10 -11 10 -2 0
-4 -4 -4 -10z"/>
<path d="M11656 7802 c-4 -10 -18 -25 -31 -32 -14 -7 -25 -17 -25 -22 0 -5 11
-1 25 8 27 17 50 52 42 61 -3 2 -8 -4 -11 -15z"/>
<path d="M8300 7800 c-23 -7 -23 -8 -3 -9 12 -1 25 4 28 9 3 6 5 10 3 9 -2 -1
-14 -5 -28 -9z"/>
<path d="M8310 7730 l-35 -7 32 -2 c17 0 35 4 38 9 3 6 5 9 3 9 -2 -1 -19 -5
-38 -9z"/>
<path d="M11489 7706 c27 -29 33 -32 25 -13 -2 7 -14 19 -27 26 -21 13 -21 12
2 -13z"/>
<path d="M11459 7676 c26 -28 31 -31 31 -17 0 5 -12 17 -27 26 l-28 18 24 -27z"/>
<path d="M11555 7650 c-3 -5 1 -10 9 -10 9 0 16 5 16 10 0 6 -4 10 -9 10 -6 0
-13 -4 -16 -10z"/>
<path d="M12522 7620 c0 -14 2 -19 5 -12 2 6 2 18 0 25 -3 6 -5 1 -5 -13z"/>
<path d="M11550 7600 c0 -5 5 -10 10 -10 6 0 10 5 10 10 0 6 -4 10 -10 10 -5
0 -10 -4 -10 -10z"/>
<path d="M12507 7523 c-4 -3 -7 -13 -7 -22 1 -13 3 -13 11 2 11 19 8 33 -4 20z"/>
<path d="M2116 7465 c-3 -9 -6 -28 -6 -41 0 -13 -4 -24 -10 -24 -5 0 -12 -11
-16 -24 -3 -14 -12 -27 -20 -30 -8 -3 -14 -12 -14 -21 0 -9 -8 -14 -22 -12
-13 1 -23 -4 -23 -10 0 -15 156 -175 163 -168 3 2 0 10 -5 17 -5 7 -8 42 -7
77 3 55 -19 237 -30 248 -2 2 -6 -3 -10 -12z m-86 -165 c0 -5 -4 -10 -10 -10
-5 0 -10 5 -10 10 0 6 5 10 10 10 6 0 10 -4 10 -10z"/>
<path d="M12485 7469 c-4 -6 -5 -12 -2 -15 2 -3 7 2 10 11 7 17 1 20 -8 4z"/>
<path d="M12529 7393 c6 -12 16 -25 21 -28 17 -11 11 5 -11 28 l-21 22 11 -22z"/>
<path d="M5650 7396 c0 -2 8 -10 18 -17 15 -13 16 -12 3 4 -13 16 -21 21 -21
13z"/>
<path d="M5605 7370 c-4 -6 -3 -10 2 -9 22 4 24 -3 7 -23 -19 -23 -19 -23 2
-6 16 14 23 15 34 5 8 -6 4 0 -9 16 -28 31 -28 31 -36 17z"/>
<path d="M12565 7331 c-3 -10 -1 -29 5 -42 9 -21 9 -20 4 10 -4 23 -3 31 5 27
7 -5 9 -1 5 8 -8 21 -11 20 -19 -3z"/>
<path d="M293 7305 c0 -22 2 -30 4 -17 2 12 2 30 0 40 -3 9 -5 -1 -4 -23z"/>
<path d="M5730 7316 c0 -2 8 -10 18 -17 15 -13 16 -12 3 4 -13 16 -21 21 -21
13z"/>
<path d="M1941 7291 c-8 -5 -9 -11 -3 -15 5 -3 12 1 16 9 6 17 6 18 -13 6z"/>
<path d="M5698 7288 c9 -9 8 -16 -6 -32 -17 -21 -17 -21 4 -4 16 14 23 15 34
5 8 -6 4 0 -9 16 -14 15 -27 27 -30 27 -3 0 0 -5 7 -12z"/>
<path d="M5785 7270 c3 -5 8 -10 11 -10 2 0 4 5 4 10 0 6 -5 10 -11 10 -5 0
-7 -4 -4 -10z"/>
<path d="M1920 7261 c0 -10 19 -25 25 -20 1 2 -3 10 -11 17 -8 7 -14 8 -14 3z"/>
<path d="M671 7194 c0 -11 3 -14 6 -6 3 7 2 16 -1 19 -3 4 -6 -2 -5 -13z"/>
<path d="M250 7170 c-12 -7 -10 -9 8 -7 12 0 22 5 22 9 0 11 -12 10 -30 -2z"/>
<path d="M2196 7144 c-20 -20 -20 -25 1 -17 12 5 15 2 10 -10 -4 -11 -2 -14 8
-11 25 10 30 54 5 54 -5 0 -16 -7 -24 -16z m34 -4 c0 -5 -4 -10 -10 -10 -5 0
-10 5 -10 10 0 6 5 10 10 10 6 0 10 -4 10 -10z"/>
<path d="M214 7125 c-9 -14 -15 -27 -13 -30 3 -2 12 10 21 26 21 36 15 39 -8
4z"/>
<path d="M10818 7141 c10 -6 10 -10 -3 -21 -8 -7 -15 -17 -15 -22 0 -6 8 0 18
12 16 20 19 20 31 7 10 -13 9 -18 -8 -29 -12 -7 -21 -19 -21 -26 0 -7 14 3 31
23 18 20 29 39 25 42 -3 3 -6 0 -6 -7 0 -9 -8 -6 -23 8 -13 12 -27 22 -33 22
-5 0 -3 -4 4 -9z"/>
<path d="M10895 7140 c-3 -5 -1 -10 4 -10 6 0 11 5 11 10 0 6 -2 10 -4 10 -3
0 -8 -4 -11 -10z"/>
<path d="M12601 7124 c0 -11 3 -14 6 -6 3 7 2 16 -1 19 -3 4 -6 -2 -5 -13z"/>
<path d="M2219 7081 c7 -5 17 -14 21 -21 5 -8 9 -7 13 5 4 9 3 13 -2 10 -5 -3
-12 -1 -16 5 -3 5 -12 10 -18 10 -8 0 -7 -3 2 -9z"/>
<path d="M196 7055 c8 -37 14 -45 14 -19 0 10 -5 26 -10 34 -8 11 -9 7 -4 -15z"/>
<path d="M2169 7078 c-6 -14 -5 -69 1 -73 12 -7 38 5 44 20 3 10 0 12 -11 8
-12 -5 -15 -2 -10 10 4 11 2 14 -9 10 -7 -3 -14 -1 -14 5 0 6 6 13 13 15 10 4
10 6 0 6 -7 1 -13 0 -14 -1z m21 -58 c0 -5 -4 -10 -10 -10 -5 0 -10 5 -10 10
0 6 5 10 10 10 6 0 10 -4 10 -10z"/>
<path d="M2276 7064 c-20 -20 -20 -25 1 -17 12 5 15 2 10 -10 -4 -11 -2 -14 8
-11 25 10 30 54 5 54 -5 0 -16 -7 -24 -16z m34 -4 c0 -5 -4 -10 -10 -10 -5 0
-10 5 -10 10 0 6 5 10 10 10 6 0 10 -4 10 -10z"/>
<path d="M10660 7051 c-6 -16 -10 -35 -8 -42 1 -8 -7 -25 -19 -37 -67 -73 -77
-84 -64 -77 11 6 13 4 8 -7 -8 -21 3 -30 20 -17 11 10 11 15 1 28 -11 14 -11
14 3 4 13 -10 21 -7 47 20 17 18 31 41 32 52 0 11 3 39 6 63 7 49 -8 57 -26
13z"/>
<path d="M10770 7070 c0 -5 5 -10 11 -10 5 0 7 5 4 10 -3 6 -8 10 -11 10 -2 0
-4 -4 -4 -10z"/>
<path d="M10733 7055 c4 -8 2 -17 -3 -20 -6 -4 -10 -11 -10 -18 0 -6 7 -1 16
11 13 19 18 21 31 11 13 -11 10 -17 -18 -41 -17 -16 -29 -31 -26 -34 3 -4 22
11 41 32 20 22 36 33 36 25 0 -8 3 -12 6 -8 3 3 1 14 -5 24 -7 12 -10 14 -11
4 0 -10 -6 -8 -23 7 -27 25 -42 28 -34 7z"/>
<path d="M2230 7023 c0 -6 5 -15 10 -18 6 -4 8 -11 5 -16 -3 -5 1 -6 10 -2 12
4 13 8 5 13 -7 4 -16 14 -21 21 -6 9 -9 10 -9 2z"/>
<path d="M12564 7018 c2 -7 11 -13 22 -13 10 0 20 -8 22 -18 2 -9 8 -17 13
-17 5 0 10 -12 10 -27 2 -24 2 -25 6 -6 5 28 -34 86 -52 79 -8 -3 -16 -1 -19
5 -2 5 -3 4 -2 -3z"/>
<path d="M221 7010 c0 -8 4 -22 9 -30 12 -18 12 -2 0 25 -6 13 -9 15 -9 5z"/>
<path d="M2304 7012 c-6 -4 -4 -13 8 -24 10 -10 18 -14 18 -9 0 6 -5 13 -10
16 -6 4 -8 11 -5 16 7 11 4 11 -11 1z"/>
<path d="M10686 6991 c-4 -5 -2 -12 3 -15 5 -4 12 -2 15 3 4 5 2 12 -3 15 -5
4 -12 2 -15 -3z"/>
<path d="M855 6970 c-3 -6 1 -7 9 -4 18 7 21 14 7 14 -6 0 -13 -4 -16 -10z"/>
<path d="M2255 6964 c-24 -25 -13 -39 31 -39 39 0 39 0 39 -40 0 -40 0 -40 40
-40 l40 0 -1 -53 c-1 -53 -1 -53 20 -35 27 23 36 35 35 48 0 6 -3 4 -6 -2 -2
-7 -9 -13 -15 -13 -6 0 -8 7 -5 14 4 10 1 13 -9 9 -7 -3 -14 0 -14 6 0 6 5 11
11 11 7 0 0 11 -13 25 -17 17 -31 23 -44 18 -13 -5 -16 -3 -11 10 4 11 2 14
-9 10 -7 -3 -14 -1 -14 5 0 6 5 12 10 14 6 2 1 11 -10 20 -11 10 -20 13 -20 8
0 -6 -5 -10 -11 -10 -6 0 -9 7 -6 14 4 11 1 13 -10 9 -12 -5 -15 -2 -10 10 8
21 3 21 -18 1z m15 -24 c0 -5 -4 -10 -10 -10 -5 0 -10 5 -10 10 0 6 5 10 10
10 6 0 10 -4 10 -10z m80 -80 c0 -5 -4 -10 -10 -10 -5 0 -10 5 -10 10 0 6 5
10 10 10 6 0 10 -4 10 -10z m40 0 c0 -5 -4 -10 -10 -10 -5 0 -10 5 -10 10 0 6
5 10 10 10 6 0 10 -4 10 -10z m40 -80 c0 -5 -4 -10 -10 -10 -5 0 -10 5 -10 10
0 6 5 10 10 10 6 0 10 -4 10 -10z"/>
<path d="M802 6940 c0 -14 2 -19 5 -12 2 6 2 18 0 25 -3 6 -5 1 -5 -13z"/>
<path d="M12568 6930 c2 -17 8 -28 12 -25 9 6 2 43 -9 50 -4 2 -5 -9 -3 -25z"/>
<path d="M200 6936 l-25 -14 27 1 c14 1 24 5 22 9 -2 3 2 9 8 11 7 3 9 6 3 6
-5 0 -21 -6 -35 -13z"/>
<path d="M9991 6934 c0 -11 3 -14 6 -6 3 7 2 16 -1 19 -3 4 -6 -2 -5 -13z"/>
<path d="M10065 6910 c3 -5 8 -10 11 -10 2 0 4 5 4 10 0 6 -5 10 -11 10 -5 0
-7 -4 -4 -10z"/>
<path d="M1250 6900 c0 -5 7 -10 15 -10 8 0 15 5 15 10 0 6 -7 10 -15 10 -8 0
-15 -4 -15 -10z"/>
<path d="M12488 6903 c6 -2 18 -2 25 0 6 3 1 5 -13 5 -14 0 -19 -2 -12 -5z"/>
<path d="M162 6825 c-1 -11 5 -31 13 -45 9 -16 14 -19 15 -9 0 8 -4 19 -9 25
-5 5 -11 18 -14 29 l-5 20 0 -20z"/>
<path d="M190 6830 c0 -8 5 -22 10 -30 9 -13 10 -13 10 0 0 8 -5 22 -10 30 -9
13 -10 13 -10 0z"/>
<path d="M10095 6824 c7 -8 19 -14 25 -14 6 0 18 6 25 14 12 11 8 13 -25 13
-33 0 -37 -2 -25 -13z"/>
<path d="M232 6790 c0 -14 2 -19 5 -12 2 6 2 18 0 25 -3 6 -5 1 -5 -13z"/>
<path d="M202 6759 c-10 -16 -10 -25 5 -49 16 -28 33 -32 33 -8 0 6 -3 8 -7 5
-3 -4 -13 2 -20 13 -12 17 -12 24 -2 36 6 8 10 16 8 19 -3 2 -10 -5 -17 -16z"/>
<path d="M226 6743 c-6 -14 -5 -15 5 -6 7 7 10 15 7 18 -3 3 -9 -2 -12 -12z"/>
<path d="M202 6654 c-12 -8 -22 -22 -22 -30 0 -8 -4 -14 -10 -14 -14 0 -13
-84 2 -131 14 -50 24 -50 23 1 0 39 -9 52 -18 28 -2 -7 -2 10 1 37 8 86 19 78
25 -20 2 -38 6 -77 8 -85 2 -8 -2 -14 -8 -13 -10 2 -10 -3 -1 -23 10 -22 14
-24 23 -10 10 13 12 9 11 -18 -1 -18 -5 -32 -11 -30 -5 2 -23 -5 -40 -16 -24
-16 -26 -20 -12 -26 22 -8 22 -24 -1 -24 -15 0 -18 -7 -16 -42 2 -37 5 -43 25
-45 48 -3 59 6 59 48 0 39 0 39 40 39 l40 0 0 80 0 80 -50 0 c-50 0 -50 0 -44
28 4 22 3 24 -6 12 -10 -13 -11 -12 -6 3 3 10 6 24 6 30 0 9 2 9 8 0 4 -6 7
22 7 63 0 65 -2 72 -15 58 -13 -13 -13 -16 0 -24 8 -5 11 -10 5 -10 -5 0 -17
5 -25 10 -12 7 -11 13 10 34 27 30 24 33 -8 10z m38 -335 c0 -4 -8 -6 -17 -3
-17 5 -17 5 -1 -9 10 -8 15 -17 11 -20 -10 -10 -25 -8 -18 2 3 5 -4 13 -16 16
-19 6 -19 8 -3 20 19 13 44 10 44 -6z"/>
<path d="M910 6610 c0 -5 7 -10 16 -10 8 0 12 5 9 10 -3 6 -10 10 -16 10 -5 0
-9 -4 -9 -10z"/>
<path d="M6580 6549 c0 -5 5 -7 10 -4 6 3 10 8 10 11 0 2 -4 4 -10 4 -5 0 -10
-5 -10 -11z"/>
<path d="M6606 6534 c-5 -14 -4 -15 9 -4 17 14 19 20 6 20 -5 0 -12 -7 -15
-16z"/>
<path d="M6535 6516 c-18 -13 -18 -14 6 -26 21 -12 23 -12 11 3 -11 13 -10 17
5 26 10 6 13 11 7 11 -5 0 -19 -6 -29 -14z"/>
<path d="M6831 6474 c0 -11 3 -14 6 -6 3 7 2 16 -1 19 -3 4 -6 -2 -5 -13z"/>
<path d="M6610 6436 c0 -2 8 -10 18 -17 15 -13 16 -12 3 4 -13 16 -21 21 -21
13z"/>
<path d="M6565 6410 c-4 -6 -3 -10 2 -9 22 4 24 -3 7 -23 -19 -23 -19 -23 2
-6 16 14 23 15 34 5 8 -6 4 0 -9 16 -28 31 -28 31 -36 17z"/>
<path d="M6701 6343 c7 -12 15 -20 18 -17 3 2 -3 12 -13 22 -17 16 -18 16 -5
-5z"/>
<path d="M6658 6328 c9 -9 8 -16 -6 -32 -17 -21 -17 -21 4 -4 16 14 23 15 34
5 8 -6 4 0 -9 16 -14 15 -27 27 -30 27 -3 0 0 -5 7 -12z"/>
<path d="M10334 6258 c1 -9 7 -22 14 -30 6 -8 10 -17 7 -20 -3 -3 12 -25 34
-49 37 -43 118 -95 129 -84 4 3 -37 49 -90 102 -53 53 -96 90 -94 81z"/>
<path d="M137 6253 c-11 -10 -8 -43 3 -43 6 0 10 11 10 25 0 26 -2 29 -13 18z"/>
<path d="M6731 6253 c1 -5 0 -10 -1 -13 -1 -3 -3 -13 -5 -23 -3 -18 -3 -18 16
-1 14 13 16 20 8 31 -13 15 -20 17 -18 6z"/>
<path d="M141 6187 c-1 -18 48 -72 57 -63 7 8 -9 26 -24 26 -8 0 -14 4 -14 9
0 9 50 2 51 -8 0 -3 3 -19 5 -36 3 -23 2 -26 -6 -15 -9 13 -11 13 -19 1 -13
-20 -12 -101 1 -126 21 -40 88 -100 88 -78 0 5 -10 13 -22 18 -13 6 -28 25
-34 43 -5 18 -13 29 -17 26 -4 -4 -7 -3 -8 2 0 5 -3 31 -5 59 -4 39 -2 47 7
38 7 -7 13 -29 15 -50 3 -51 5 -54 13 -18 4 17 3 38 -2 49 -5 10 -5 21 -1 25
5 3 9 19 9 34 0 32 -27 57 -61 57 -12 0 -25 6 -27 13 -3 7 -6 5 -6 -6z"/>
<path d="M225 6180 c3 -5 8 -10 11 -10 2 0 4 5 4 10 0 6 -5 10 -11 10 -5 0 -7
-4 -4 -10z"/>
<path d="M9861 6183 c3 -19 -2 -27 -10 -14 -6 9 -8 5 -8 -13 0 -26 0 -26 14
-6 8 11 19 17 26 13 7 -4 6 0 -2 10 -14 18 -22 22 -20 10z"/>
<path d="M9907 6155 c-4 -8 -3 -16 1 -19 4 -3 9 4 9 15 2 23 -3 25 -10 4z"/>
<path d="M9778 6101 c10 -6 10 -10 -3 -21 -8 -7 -15 -17 -15 -23 0 -6 7 -1 16
11 13 18 19 21 30 11 12 -9 12 -15 2 -28 -8 -10 -5 -9 10 3 12 11 22 24 22 30
0 7 -4 6 -8 -2 -7 -9 -13 -8 -27 8 -10 11 -23 20 -29 20 -6 0 -6 -4 2 -9z"/>
<path d="M2735 6050 c-3 -5 -1 -10 4 -10 6 0 11 5 11 10 0 6 -2 10 -4 10 -3 0
-8 -4 -11 -10z"/>
<path d="M238 6013 c0 -16 -1 -37 -2 -47 -1 -20 59 -64 70 -53 3 3 -11 15 -33
27 -21 11 -28 18 -15 15 42 -12 62 3 62 46 0 39 0 39 -40 39 -37 0 -40 -2 -42
-27z"/>
<path d="M9685 6020 c-4 -6 1 -7 12 -3 17 6 17 5 1 -14 -10 -11 -18 -24 -18
-29 0 -4 7 2 16 14 15 21 17 22 33 8 18 -16 31 -12 31 8 0 6 -4 6 -8 -2 -7 -9
-13 -8 -27 8 -20 22 -31 25 -40 10z"/>
<path d="M2406 5981 c-4 -5 -2 -12 3 -15 5 -4 12 -2 15 3 4 5 2 12 -3 15 -5 4
-12 2 -15 -3z"/>
<path d="M2376 5951 c-4 -5 -2 -12 3 -15 5 -4 12 -2 15 3 4 5 2 12 -3 15 -5 4
-12 2 -15 -3z"/>
<path d="M2326 5901 c-4 -5 -2 -12 3 -15 5 -4 12 -2 15 3 4 5 2 12 -3 15 -5 4
-12 2 -15 -3z"/>
</g>
</svg>
